<svg width="1080" height="1080" viewBox="0 0 1080 1080" fill="none" xmlns="http://www.w3.org/2000/svg">
<rect width="1080" height="1080" fill="black"/>
<mask id="mask0_9_243" style="mask-type:luminance" maskUnits="userSpaceOnUse" x="510" y="380" width="211" height="187">
<path d="M510.866 380H720.937V566.972H510.866V380Z" fill="white"/>
</mask>
<g mask="url(#mask0_9_243)">
<path d="M716.56 512.202C662.107 490.413 610.957 472.676 559.471 467.324C564.625 466.07 569.654 464.343 574.388 462.003C601.868 448.41 609 421.208 590.295 401.223C576.703 386.697 553.179 380.031 530.792 382.691C508.847 418.058 510.93 451.04 521.639 483.639C531.697 514.281 550.802 542.982 586.108 566.621C619.878 524.771 664.148 503.272 716.56 512.202Z" fill="white"/>
</g>
<mask id="mask1_9_243" style="mask-type:luminance" maskUnits="userSpaceOnUse" x="360" y="380" width="227" height="258">
<path d="M360.047 380H586.276V637.431H360.047V380Z" fill="white"/>
</mask>
<g mask="url(#mask1_9_243)">
<path d="M530.792 382.691C522.397 383.685 514.149 385.948 506.658 389.648C479.158 403.242 472.046 430.459 490.73 450.428C497.4 457.538 506.448 462.737 516.547 465.933C468.027 467.951 418.329 482.829 364.465 517.477C364.465 517.477 463.504 479.801 521.555 627.722C525.574 637.966 545.457 638.181 549.876 627.997C560.059 604.557 572.179 583.869 586.108 566.621C525.048 517.431 502.829 447.385 530.792 382.691Z" fill="white"/>
</g>
<path d="M795.126 610.076C819.133 617.248 846.613 608.899 856.46 591.453C866.328 573.991 854.861 554.037 830.832 546.865C806.825 539.709 779.346 548.043 769.477 565.489C765.985 571.712 765.227 578.226 766.7 584.388C743.997 562.294 709.28 545.153 655.037 534.572C655.037 534.572 705.009 554.648 667.157 610.566C686.051 622.37 705.409 628.165 725.671 631.254C748.626 634.74 767.878 633.67 796.01 628.945C792.706 620.703 788.793 612.783 783.932 605.306C787.278 607.217 791.002 608.853 795.126 610.076Z" fill="white"/>
<mask id="mask2_9_243" style="mask-type:luminance" maskUnits="userSpaceOnUse" x="623" y="610" width="190" height="90">
<path d="M623.981 610.031H812.506V700H623.981V610.031Z" fill="white"/>
</mask>
<g mask="url(#mask2_9_243)">
<path d="M667.156 610.566C659.182 622.34 647.315 635.704 630.251 650.811C621.183 658.853 631.619 670.612 645.442 667.997C727.859 652.37 791.528 660.046 811.306 699.006C808.487 673.685 804.468 650.138 796.01 628.945C752.897 630.887 708.628 625.046 667.156 610.566Z" fill="white"/>
</g>
<mask id="mask3_9_243" style="mask-type:luminance" maskUnits="userSpaceOnUse" x="220" y="531" width="238" height="169">
<path d="M220 531.743H457.002V700H220V531.743Z" fill="white"/>
</mask>
<g mask="url(#mask3_9_243)">
<path d="M426.009 534.572C371.745 545.153 337.028 562.293 314.325 584.388C315.819 578.226 315.062 571.712 311.548 565.489C301.68 548.043 274.222 539.709 250.193 546.865C226.186 554.037 214.698 573.991 224.566 591.453C234.434 608.899 261.892 617.248 285.92 610.076C290.044 608.853 293.769 607.217 297.093 605.306C279.734 631.988 273.633 663.838 269.719 699.006C289.497 660.046 353.166 652.37 435.583 667.997C449.428 670.627 459.843 658.838 450.753 650.795C352.746 563.991 426.009 534.572 426.009 534.572Z" fill="white"/>
</g>
</svg>
