<svg width="1080" height="540" viewBox="0 0 1080 540" fill="none" xmlns="http://www.w3.org/2000/svg">
<mask id="mask0_14_208" style="mask-type:luminance" maskUnits="userSpaceOnUse" x="490" y="0" width="356" height="316">
<path d="M490.837 0H845.331V315.516H490.837V0Z" fill="white"/>
</mask>
<g mask="url(#mask0_14_208)">
<path d="M837.945 223.091C746.056 186.322 659.74 156.391 572.856 147.36C581.555 145.244 590.041 142.328 598.03 138.38C644.401 115.442 656.438 69.5386 624.873 35.8144C601.936 11.3017 562.24 0.0517375 524.461 4.54141C487.429 64.2232 490.944 119.88 509.016 174.891C525.988 226.6 558.228 275.032 617.807 314.923C674.795 244.301 749.5 208.022 837.945 223.091Z" fill="black"/>
</g>
<mask id="mask1_14_208" style="mask-type:luminance" maskUnits="userSpaceOnUse" x="236" y="0" width="383" height="435">
<path d="M236.329 0H618.091V434.415H236.329V0Z" fill="white"/>
</mask>
<g mask="url(#mask1_14_208)">
<path d="M524.461 4.54138C510.294 6.21856 496.376 10.0374 483.736 16.2816C437.329 39.2203 425.328 85.1492 456.858 118.848C468.113 130.846 483.381 139.619 500.424 145.012C418.546 148.418 334.681 173.524 243.785 231.993C243.785 231.993 410.913 168.415 508.874 418.031C515.656 435.318 549.209 435.68 556.666 418.495C573.851 378.939 594.302 344.028 617.807 314.923C514.768 231.915 477.274 113.713 524.461 4.54138Z" fill="black"/>
</g>
<path d="M970.525 388.254C1011.04 400.355 1057.41 386.267 1074.03 356.826C1090.68 327.359 1071.33 293.687 1030.78 281.585C990.267 269.51 943.896 283.572 927.243 313.013C921.349 323.515 920.071 334.507 922.557 344.905C884.245 307.62 825.66 278.695 734.125 260.84C734.125 260.84 818.452 294.719 754.577 389.08C786.461 408.999 819.127 418.779 853.319 423.991C892.057 429.874 924.545 428.068 972.017 420.094C966.442 406.187 959.838 392.821 951.636 380.203C957.282 383.429 963.566 386.19 970.525 388.254Z" fill="black"/>
<mask id="mask2_14_208" style="mask-type:luminance" maskUnits="userSpaceOnUse" x="681" y="388" width="319" height="152">
<path d="M681.718 388.177H999.853V540H681.718V388.177Z" fill="white"/>
</mask>
<g mask="url(#mask2_14_208)">
<path d="M754.576 389.08C741.119 408.948 721.094 431.5 692.298 456.993C676.995 470.565 694.606 490.407 717.934 485.995C857.011 459.625 964.453 472.578 997.829 538.323C993.071 495.594 986.289 455.857 972.016 420.095C899.264 423.372 824.559 413.515 754.576 389.08Z" fill="black"/>
</g>
<mask id="mask3_14_208" style="mask-type:luminance" maskUnits="userSpaceOnUse" x="0" y="256" width="400" height="285">
<path d="M0 256.067H399.942V540H0V256.067Z" fill="white"/>
</mask>
<g mask="url(#mask3_14_208)">
<path d="M347.641 260.84C256.07 278.696 197.485 307.62 159.174 344.905C161.695 334.507 160.417 323.515 154.487 313.013C137.835 283.572 91.4992 269.51 50.9512 281.586C10.4386 293.687 -8.94774 327.36 7.70465 356.826C24.3571 386.267 70.6926 400.356 111.241 388.254C118.2 386.19 124.484 383.429 130.094 380.204C100.802 425.229 90.5051 478.977 83.9009 538.323C117.277 472.578 224.718 459.625 363.796 485.995C387.159 490.433 404.735 470.539 389.396 456.967C224.008 310.485 347.641 260.84 347.641 260.84Z" fill="black"/>
</g>
</svg>
