<svg width="1080" height="1080" viewBox="0 0 1080 1080" fill="none" xmlns="http://www.w3.org/2000/svg">
<rect width="1080" height="1080" fill="#FC516B"/>
<path d="M296.197 790.389C294.645 790.389 292.721 790.358 290.425 790.296C288.191 790.296 285.895 790.265 283.536 790.203C281.24 790.141 279.223 790.079 277.485 790.017C277.485 787.224 277.485 783.811 277.485 779.777C277.548 775.681 277.579 771.305 277.579 766.651C277.641 761.934 277.672 757.249 277.672 752.594C277.734 747.877 277.796 743.471 277.858 739.375C277.92 735.217 277.982 731.68 278.044 728.763C273.389 728.825 268.859 728.887 264.453 728.949C260.046 728.949 256.013 728.949 252.351 728.949L252.723 719.64C256.695 719.64 260.977 719.671 265.57 719.733C270.162 719.733 274.848 719.764 279.627 719.826C284.405 719.826 289.029 719.857 293.497 719.919C298.028 719.919 302.186 719.95 305.971 720.012C309.757 720.012 312.953 720.043 315.56 720.105C318.228 720.105 320.028 720.136 320.959 720.198L321.238 728.018C317.825 728.142 313.915 728.266 309.509 728.39C305.102 728.453 300.479 728.515 295.638 728.577C295.7 731.369 295.762 734.721 295.824 738.63C295.886 742.54 295.917 746.791 295.917 751.384C295.98 755.914 296.011 760.507 296.011 765.161C296.073 769.816 296.104 774.315 296.104 778.66C296.166 783.004 296.197 786.914 296.197 790.389ZM335.494 775.681C333.881 775.681 332.205 775.681 330.467 775.681C328.792 775.619 327.054 775.525 325.254 775.401C323.889 780.242 322.524 785.3 321.158 790.575L309.987 789.83C313.463 778.101 317.341 766.278 321.624 754.363C325.906 742.385 330.467 730.749 335.308 719.454C337.604 719.205 340.149 718.988 342.941 718.802C345.796 718.616 348.713 718.523 351.692 718.523C355.478 727.708 359.512 738.32 363.794 750.36C368.076 762.4 372.482 775.37 377.013 789.272C373.413 789.893 370 790.358 366.773 790.668C363.608 790.979 360.381 791.134 357.091 791.134C355.788 785.921 354.33 780.428 352.716 774.657C347.193 775.339 341.452 775.681 335.494 775.681ZM339.125 729.414C337.821 732.952 336.177 737.855 334.191 744.123C332.267 750.391 330.126 757.745 327.768 766.185C330.25 766.496 332.795 766.713 335.401 766.837C338.07 766.961 340.925 767.023 343.965 767.023C345.083 767.023 346.2 767.023 347.317 767.023C348.496 766.961 349.582 766.93 350.575 766.93C349.21 761.965 347.813 757.156 346.386 752.501C345.021 747.784 343.717 743.471 342.476 739.561C341.235 735.589 340.118 732.207 339.125 729.414ZM393.944 791.134C390.035 781.514 385.908 770.654 381.563 758.552C377.281 746.388 372.968 733.666 368.624 720.385C372.409 719.702 375.885 719.237 379.05 718.988C382.277 718.678 385.442 718.523 388.545 718.523C389.973 724.108 391.462 729.849 393.013 735.745C394.627 741.64 396.241 747.381 397.854 752.966C399.53 758.552 401.112 763.703 402.602 768.42C404.091 773.136 405.395 777.077 406.512 780.242C407.877 776.518 409.522 771.523 411.445 765.254C413.369 758.986 415.448 751.88 417.683 743.937C419.917 735.993 422.182 727.646 424.478 718.895L435.649 719.64C432.236 731.493 428.357 743.44 424.013 755.48C419.731 767.458 415.169 779.032 410.328 790.203L393.944 791.134ZM491.268 790.668C489.096 790.482 485.621 790.327 480.842 790.203C476.125 790.017 470.447 789.893 463.806 789.83C457.228 789.768 450.06 789.737 442.302 789.737C442.178 788 442.023 785.362 441.837 781.825C441.713 778.225 441.557 774.129 441.371 769.537C441.185 764.944 440.999 760.165 440.813 755.201C440.627 750.236 440.471 745.457 440.347 740.865C440.223 736.21 440.099 732.083 439.975 728.484C439.913 724.884 439.882 722.184 439.882 720.385C442.613 720.385 445.747 720.385 449.284 720.385C452.884 720.323 456.638 720.261 460.548 720.198C464.458 720.136 468.337 720.074 472.184 720.012C476.032 719.888 479.601 719.795 482.89 719.733C486.241 719.609 489.065 719.516 491.361 719.454L491.733 729.414L458.5 728.297C458.5 731.959 458.5 735.683 458.5 739.468C458.5 743.192 458.531 746.853 458.593 750.453L489.872 749.429L489.499 759.669L458.686 758.366C458.748 762.772 458.81 766.961 458.872 770.933C458.934 774.905 459.028 778.504 459.152 781.732L491.64 780.614L491.268 790.668ZM536.112 791.227C532.76 782.787 529.347 775.712 525.872 770.002C522.396 764.23 519.107 760.134 516.004 757.714C516.128 762.927 516.221 768.326 516.283 773.912C516.345 779.497 516.376 784.99 516.376 790.389C513.584 790.389 510.636 790.327 507.533 790.203C504.492 790.141 501.854 790.079 499.62 790.017C499.62 784.741 499.62 779.249 499.62 773.54C499.62 767.83 499.589 762.213 499.527 756.69C499.527 751.105 499.496 745.892 499.434 741.051C499.372 736.21 499.31 731.99 499.248 728.39C499.248 724.791 499.217 722.122 499.155 720.385C502.32 719.888 505.454 719.547 508.557 719.361C511.722 719.112 514.67 718.988 517.4 718.988C524.351 718.988 530.433 719.733 535.646 721.222C540.859 722.65 544.924 724.729 547.841 727.46C550.758 730.128 552.216 733.386 552.216 737.234C552.216 740.027 551.441 742.695 549.889 745.24C548.4 747.784 546.352 749.988 543.745 751.849C541.139 753.711 538.191 755.014 534.901 755.759C535.894 756.938 537.136 758.614 538.625 760.786C540.115 762.896 541.666 765.285 543.28 767.954C544.955 770.561 546.569 773.198 548.12 775.867C549.672 778.535 551.068 781.049 552.309 783.407C553.551 785.703 554.451 787.565 555.009 788.993C554.016 789.179 552.651 789.396 550.913 789.644C549.237 789.893 547.438 790.11 545.514 790.296C543.652 790.544 541.852 790.73 540.115 790.854C538.439 791.041 537.105 791.165 536.112 791.227ZM514.887 726.249C515.073 729.042 515.259 732.859 515.445 737.7C515.632 742.54 515.818 747.94 516.004 753.897C522.148 753.649 526.989 752.377 530.526 750.081C534.126 747.722 535.925 744.619 535.925 740.772C535.925 737.979 534.995 735.496 533.133 733.324C531.333 731.09 528.851 729.352 525.685 728.111C522.52 726.87 518.921 726.249 514.887 726.249ZM561.064 789.924C561.064 787.131 561.095 783.749 561.157 779.777C561.219 775.743 561.281 771.429 561.343 766.837C561.467 762.182 561.591 757.497 561.715 752.78C561.839 748.002 561.964 743.471 562.088 739.189C562.274 734.845 562.429 731.028 562.553 727.739C562.677 724.388 562.801 721.843 562.925 720.105C564.539 719.981 566.804 719.888 569.721 719.826C572.7 719.764 576.393 719.733 580.799 719.733C585.888 727.242 591.194 735.248 596.717 743.75C602.303 752.191 607.981 761.221 613.753 770.84L611.705 719.64C613.319 719.64 615.056 719.702 616.918 719.826C618.842 719.888 620.704 719.981 622.504 720.105C622.504 725.318 622.473 730.904 622.411 736.862C622.348 742.757 622.286 748.622 622.224 754.456C622.162 760.29 622.069 765.72 621.945 770.747C621.821 775.712 621.697 779.901 621.573 783.314C621.511 786.727 621.418 788.962 621.293 790.017C619.99 790.079 618.221 790.141 615.987 790.203C613.815 790.265 611.612 790.296 609.378 790.296C607.144 790.358 605.313 790.389 603.885 790.389C598.983 782.383 593.521 773.943 587.501 765.068C581.544 756.194 575.524 747.381 569.442 738.63L571.862 790.482C568.387 790.482 564.787 790.296 561.064 789.924ZM662.511 790.668C657.67 790.668 653.202 789.799 649.106 788.062C645.072 786.262 641.534 783.749 638.493 780.521C635.515 777.294 633.187 773.509 631.512 769.164C629.836 764.758 628.998 759.979 628.998 754.828C628.998 749.677 629.836 744.93 631.512 740.585C633.187 736.179 635.515 732.362 638.493 729.135C641.534 725.908 645.072 723.426 649.106 721.688C653.202 719.888 657.67 718.988 662.511 718.988C667.352 718.988 671.82 719.888 675.916 721.688C680.012 723.426 683.549 725.908 686.528 729.135C689.569 732.362 691.897 736.179 693.51 740.585C695.186 744.93 696.024 749.677 696.024 754.828C696.024 759.979 695.186 764.758 693.51 769.164C691.897 773.509 689.569 777.294 686.528 780.521C683.549 783.749 680.012 786.262 675.916 788.062C671.82 789.799 667.352 790.668 662.511 790.668ZM664.466 782.849C667.507 782.849 670.144 781.825 672.379 779.777C674.613 777.729 676.35 774.843 677.592 771.119C678.833 767.396 679.453 763.051 679.453 758.086C679.453 752.191 678.616 746.885 676.94 742.168C675.264 737.451 672.999 733.728 670.144 730.997C667.29 728.204 664.093 726.808 660.556 726.808C657.577 726.808 654.94 727.832 652.643 729.88C650.409 731.928 648.671 734.814 647.43 738.537C646.189 742.261 645.568 746.605 645.568 751.57C645.568 757.404 646.406 762.71 648.082 767.489C649.757 772.205 652.023 775.96 654.877 778.753C657.732 781.483 660.928 782.849 664.466 782.849ZM756.045 790.668C754.618 790.606 752.26 790.544 748.971 790.482C745.681 790.42 741.678 790.358 736.962 790.296C732.307 790.296 727.156 790.265 721.509 790.203C715.923 790.203 710.121 790.203 704.101 790.203C703.542 777.418 703.139 765.254 702.891 753.711C702.642 742.168 702.518 730.935 702.518 720.012C703.946 719.95 706.428 719.919 709.965 719.919C713.503 719.857 717.475 719.826 721.881 719.826C721.881 724.357 721.85 729.352 721.788 734.814C721.788 740.275 721.726 745.861 721.602 751.57C721.54 757.28 721.447 762.865 721.323 768.326C721.26 773.726 721.136 778.722 720.95 783.314C727.404 783.314 733.673 783.252 739.755 783.128C745.836 782.942 751.174 782.725 755.766 782.476L756.045 790.668ZM786.131 775.681C784.517 775.681 782.841 775.681 781.104 775.681C779.428 775.619 777.69 775.525 775.891 775.401C774.525 780.242 773.16 785.3 771.795 790.575L760.624 789.83C764.099 778.101 767.978 766.278 772.26 754.363C776.542 742.385 781.104 730.749 785.944 719.454C788.241 719.205 790.785 718.988 793.578 718.802C796.433 718.616 799.349 718.523 802.328 718.523C806.114 727.708 810.148 738.32 814.43 750.36C818.712 762.4 823.119 775.37 827.649 789.272C824.05 789.893 820.636 790.358 817.409 790.668C814.244 790.979 811.017 791.134 807.728 791.134C806.424 785.921 804.966 780.428 803.352 774.657C797.829 775.339 792.088 775.681 786.131 775.681ZM789.761 729.414C788.458 732.952 786.813 737.855 784.827 744.123C782.903 750.391 780.762 757.745 778.404 766.185C780.886 766.496 783.431 766.713 786.037 766.837C788.706 766.961 791.561 767.023 794.602 767.023C795.719 767.023 796.836 767.023 797.953 767.023C799.132 766.961 800.218 766.93 801.211 766.93C799.846 761.965 798.45 757.156 797.022 752.501C795.657 747.784 794.354 743.471 793.112 739.561C791.871 735.589 790.754 732.207 789.761 729.414Z" fill="white"/>
<path d="M401.505 694.604C399.085 694.604 396.851 694.169 394.803 693.301C392.786 692.401 391.017 691.144 389.497 689.53C388.007 687.917 386.844 686.024 386.006 683.852C385.168 681.649 384.749 679.259 384.749 676.684C384.749 674.108 385.168 671.734 386.006 669.562C386.844 667.359 388.007 665.451 389.497 663.837C391.017 662.224 392.786 660.982 394.803 660.114C396.851 659.214 399.085 658.764 401.505 658.764C403.926 658.764 406.16 659.214 408.208 660.114C410.256 660.982 412.025 662.224 413.514 663.837C415.035 665.451 416.198 667.359 417.005 669.562C417.843 671.734 418.262 674.108 418.262 676.684C418.262 679.259 417.843 681.649 417.005 683.852C416.198 686.024 415.035 687.917 413.514 689.53C412.025 691.144 410.256 692.401 408.208 693.301C406.16 694.169 403.926 694.604 401.505 694.604ZM402.483 690.694C404.003 690.694 405.322 690.182 406.439 689.158C407.556 688.134 408.425 686.691 409.046 684.829C409.666 682.967 409.977 680.795 409.977 678.313C409.977 675.365 409.558 672.712 408.72 670.354C407.882 667.995 406.75 666.134 405.322 664.768C403.895 663.372 402.297 662.674 400.528 662.674C399.039 662.674 397.72 663.186 396.572 664.21C395.455 665.234 394.586 666.677 393.965 668.538C393.345 670.4 393.034 672.572 393.034 675.055C393.034 677.972 393.453 680.625 394.291 683.014C395.129 685.372 396.261 687.25 397.689 688.646C399.116 690.011 400.714 690.694 402.483 690.694ZM439.988 694.883C438.312 690.663 436.605 687.126 434.868 684.271C433.13 681.385 431.485 679.337 429.934 678.127C429.996 680.733 430.042 683.433 430.073 686.226C430.105 689.018 430.12 691.765 430.12 694.464C428.724 694.464 427.25 694.433 425.698 694.371C424.178 694.34 422.859 694.309 421.742 694.278C421.742 691.64 421.742 688.894 421.742 686.039C421.742 683.185 421.726 680.376 421.695 677.615C421.695 674.822 421.68 672.215 421.649 669.795C421.618 667.375 421.587 665.265 421.556 663.465C421.556 661.665 421.54 660.331 421.509 659.462C423.092 659.214 424.659 659.043 426.21 658.95C427.793 658.826 429.267 658.764 430.632 658.764C434.107 658.764 437.148 659.136 439.755 659.881C442.361 660.595 444.394 661.634 445.852 662.999C447.311 664.334 448.04 665.963 448.04 667.887C448.04 669.283 447.652 670.617 446.876 671.89C446.132 673.162 445.108 674.263 443.804 675.194C442.501 676.125 441.027 676.777 439.383 677.149C439.879 677.739 440.5 678.577 441.244 679.663C441.989 680.718 442.765 681.912 443.572 683.247C444.409 684.55 445.216 685.869 445.992 687.203C446.768 688.537 447.466 689.794 448.087 690.973C448.707 692.121 449.157 693.052 449.436 693.766C448.94 693.859 448.257 693.968 447.388 694.092C446.551 694.216 445.651 694.325 444.689 694.418C443.758 694.542 442.858 694.635 441.989 694.697C441.151 694.79 440.484 694.852 439.988 694.883ZM429.375 662.394C429.468 663.791 429.561 665.699 429.655 668.119C429.748 670.54 429.841 673.239 429.934 676.218C433.006 676.094 435.426 675.458 437.195 674.31C438.995 673.131 439.895 671.579 439.895 669.655C439.895 668.259 439.429 667.018 438.498 665.932C437.598 664.815 436.357 663.946 434.775 663.325C433.192 662.705 431.392 662.394 429.375 662.394ZM463.588 687.11C462.781 687.11 461.943 687.11 461.075 687.11C460.237 687.079 459.368 687.032 458.468 686.97C457.785 689.391 457.103 691.92 456.42 694.557L450.835 694.185C452.572 688.32 454.512 682.409 456.653 676.451C458.794 670.462 461.075 664.644 463.495 658.997C464.643 658.872 465.915 658.764 467.312 658.671C468.739 658.578 470.197 658.531 471.687 658.531C473.58 663.124 475.597 668.43 477.738 674.45C479.879 680.47 482.082 686.955 484.347 693.906C482.548 694.216 480.841 694.449 479.227 694.604C477.645 694.759 476.031 694.837 474.387 694.837C473.735 692.23 473.006 689.484 472.199 686.598C469.437 686.939 466.567 687.11 463.588 687.11ZM465.403 663.977C464.752 665.746 463.929 668.197 462.936 671.331C461.974 674.465 460.904 678.142 459.725 682.362C460.966 682.518 462.238 682.626 463.541 682.688C464.876 682.75 466.303 682.781 467.824 682.781C468.382 682.781 468.941 682.781 469.499 682.781C470.089 682.75 470.632 682.735 471.128 682.735C470.446 680.252 469.748 677.847 469.034 675.52C468.351 673.162 467.7 671.005 467.079 669.05C466.458 667.064 465.9 665.373 465.403 663.977ZM500.667 694.464C499.891 694.464 498.929 694.449 497.781 694.418C496.664 694.418 495.516 694.402 494.336 694.371C493.188 694.34 492.18 694.309 491.311 694.278C491.311 692.882 491.311 691.175 491.311 689.158C491.342 687.11 491.357 684.922 491.357 682.595C491.388 680.237 491.404 677.894 491.404 675.567C491.435 673.208 491.466 671.005 491.497 668.957C491.528 666.878 491.559 665.11 491.59 663.651C489.263 663.682 486.998 663.713 484.795 663.744C482.591 663.744 480.574 663.744 478.744 663.744L478.93 659.09C480.916 659.09 483.057 659.105 485.353 659.136C487.649 659.136 489.992 659.152 492.381 659.183C494.771 659.183 497.083 659.198 499.317 659.229C501.582 659.229 503.661 659.245 505.554 659.276C507.447 659.276 509.045 659.291 510.348 659.322C511.682 659.322 512.582 659.338 513.048 659.369L513.187 663.279C511.481 663.341 509.526 663.403 507.323 663.465C505.119 663.496 502.808 663.527 500.387 663.558C500.418 664.954 500.449 666.63 500.48 668.585C500.511 670.54 500.527 672.665 500.527 674.962C500.558 677.227 500.573 679.523 500.573 681.85C500.604 684.178 500.62 686.427 500.62 688.599C500.651 690.772 500.667 692.726 500.667 694.464ZM528.778 694.604C526.358 694.604 524.124 694.169 522.076 693.301C520.059 692.401 518.29 691.144 516.769 689.53C515.28 687.917 514.116 686.024 513.279 683.852C512.441 681.649 512.022 679.259 512.022 676.684C512.022 674.108 512.441 671.734 513.279 669.562C514.116 667.359 515.28 665.451 516.769 663.837C518.29 662.224 520.059 660.982 522.076 660.114C524.124 659.214 526.358 658.764 528.778 658.764C531.199 658.764 533.433 659.214 535.481 660.114C537.529 660.982 539.297 662.224 540.787 663.837C542.307 665.451 543.471 667.359 544.278 669.562C545.116 671.734 545.535 674.108 545.535 676.684C545.535 679.259 545.116 681.649 544.278 683.852C543.471 686.024 542.307 687.917 540.787 689.53C539.297 691.144 537.529 692.401 535.481 693.301C533.433 694.169 531.199 694.604 528.778 694.604ZM529.756 690.694C531.276 690.694 532.595 690.182 533.712 689.158C534.829 688.134 535.698 686.691 536.319 684.829C536.939 682.967 537.249 680.795 537.249 678.313C537.249 675.365 536.831 672.712 535.993 670.354C535.155 667.995 534.022 666.134 532.595 664.768C531.168 663.372 529.569 662.674 527.801 662.674C526.311 662.674 524.992 663.186 523.844 664.21C522.727 665.234 521.858 666.677 521.238 668.538C520.617 670.4 520.307 672.572 520.307 675.055C520.307 677.972 520.726 680.625 521.564 683.014C522.401 685.372 523.534 687.25 524.961 688.646C526.389 690.011 527.987 690.694 529.756 690.694ZM567.26 694.883C565.585 690.663 563.878 687.126 562.14 684.271C560.403 681.385 558.758 679.337 557.207 678.127C557.269 680.733 557.315 683.433 557.346 686.226C557.377 689.018 557.393 691.765 557.393 694.464C555.996 694.464 554.522 694.433 552.971 694.371C551.45 694.34 550.132 694.309 549.015 694.278C549.015 691.64 549.015 688.894 549.015 686.039C549.015 683.185 548.999 680.376 548.968 677.615C548.968 674.822 548.952 672.215 548.921 669.795C548.89 667.375 548.859 665.265 548.828 663.465C548.828 661.665 548.813 660.331 548.782 659.462C550.364 659.214 551.931 659.043 553.483 658.95C555.065 658.826 556.539 658.764 557.905 658.764C561.38 658.764 564.421 659.136 567.028 659.881C569.634 660.595 571.667 661.634 573.125 662.999C574.583 664.334 575.313 665.963 575.313 667.887C575.313 669.283 574.925 670.617 574.149 671.89C573.404 673.162 572.38 674.263 571.077 675.194C569.774 676.125 568.3 676.777 566.655 677.149C567.152 677.739 567.772 678.577 568.517 679.663C569.262 680.718 570.038 681.912 570.844 683.247C571.682 684.55 572.489 685.869 573.265 687.203C574.04 688.537 574.739 689.794 575.359 690.973C575.98 692.121 576.43 693.052 576.709 693.766C576.213 693.859 575.53 693.968 574.661 694.092C573.823 694.216 572.923 694.325 571.961 694.418C571.031 694.542 570.131 694.635 569.262 694.697C568.424 694.79 567.757 694.852 567.26 694.883ZM556.648 662.394C556.741 663.791 556.834 665.699 556.927 668.119C557.02 670.54 557.113 673.239 557.207 676.218C560.279 676.094 562.699 675.458 564.468 674.31C566.267 673.131 567.167 671.579 567.167 669.655C567.167 668.259 566.702 667.018 565.771 665.932C564.871 664.815 563.63 663.946 562.047 663.325C560.465 662.705 558.665 662.394 556.648 662.394ZM579.758 694.418C580.131 686.877 580.317 679.213 580.317 671.424C580.317 670.121 580.301 668.694 580.27 667.142C580.27 665.559 580.255 664.07 580.224 662.674C580.224 661.277 580.208 660.16 580.177 659.322C580.549 659.26 581.17 659.214 582.039 659.183C582.939 659.152 583.916 659.136 584.971 659.136C585.809 659.136 586.631 659.152 587.438 659.183C588.276 659.214 588.99 659.26 589.579 659.322C589.517 661.246 589.471 663.17 589.44 665.094C589.409 667.018 589.378 668.849 589.347 670.586C589.347 672.293 589.347 673.782 589.347 675.055C589.347 679.275 589.393 682.936 589.486 686.039C589.61 689.142 589.781 691.889 589.998 694.278C588.323 694.34 586.616 694.371 584.878 694.371C583.172 694.402 581.465 694.418 579.758 694.418ZM610.96 694.604C608.54 694.604 606.305 694.169 604.257 693.301C602.24 692.401 600.472 691.144 598.951 689.53C597.462 687.917 596.298 686.024 595.46 683.852C594.623 681.649 594.204 679.259 594.204 676.684C594.204 674.108 594.623 671.734 595.46 669.562C596.298 667.359 597.462 665.451 598.951 663.837C600.472 662.224 602.24 660.982 604.257 660.114C606.305 659.214 608.54 658.764 610.96 658.764C613.38 658.764 615.615 659.214 617.663 660.114C619.711 660.982 621.479 662.224 622.969 663.837C624.489 665.451 625.653 667.359 626.46 669.562C627.297 671.734 627.716 674.108 627.716 676.684C627.716 679.259 627.297 681.649 626.46 683.852C625.653 686.024 624.489 687.917 622.969 689.53C621.479 691.144 619.711 692.401 617.663 693.301C615.615 694.169 613.38 694.604 610.96 694.604ZM611.937 690.694C613.458 690.694 614.777 690.182 615.894 689.158C617.011 688.134 617.88 686.691 618.5 684.829C619.121 682.967 619.431 680.795 619.431 678.313C619.431 675.365 619.012 672.712 618.175 670.354C617.337 667.995 616.204 666.134 614.777 664.768C613.349 663.372 611.751 662.674 609.983 662.674C608.493 662.674 607.174 663.186 606.026 664.21C604.909 665.234 604.04 666.677 603.42 668.538C602.799 670.4 602.489 672.572 602.489 675.055C602.489 677.972 602.908 680.625 603.745 683.014C604.583 685.372 605.716 687.25 607.143 688.646C608.571 690.011 610.169 690.694 611.937 690.694ZM655.279 694.604C654.379 694.604 653.432 694.573 652.439 694.511C651.477 694.48 650.531 694.433 649.6 694.371C649.6 690.989 649.6 687.591 649.6 684.178C649.631 680.764 649.647 677.491 649.647 674.357C649.678 671.222 649.709 668.368 649.74 665.792C649.802 663.186 649.864 660.998 649.926 659.229C651.136 659.074 652.315 658.966 653.463 658.903C654.611 658.81 655.728 658.764 656.815 658.764C663.951 658.764 669.335 660.238 672.966 663.186C676.627 666.102 678.458 670.416 678.458 676.125C678.458 682.145 676.457 686.738 672.454 689.903C668.482 693.037 662.757 694.604 655.279 694.604ZM657.839 690.741C660.786 690.741 663.16 690.322 664.96 689.484C666.791 688.615 668.125 687.25 668.963 685.388C669.801 683.526 670.22 681.059 670.22 677.987C670.22 673.115 669.227 669.423 667.241 666.909C665.286 664.396 662.245 662.937 658.118 662.534C658.087 663.372 658.056 664.644 658.025 666.351C657.994 668.026 657.963 669.95 657.932 672.122C657.932 674.263 657.916 676.482 657.885 678.778C657.885 681.075 657.87 683.278 657.839 685.388C657.839 687.467 657.839 689.251 657.839 690.741ZM682.667 694.418C683.04 686.877 683.226 679.213 683.226 671.424C683.226 670.121 683.21 668.694 683.179 667.142C683.179 665.559 683.164 664.07 683.133 662.674C683.133 661.277 683.117 660.16 683.086 659.322C683.459 659.26 684.079 659.214 684.948 659.183C685.848 659.152 686.825 659.136 687.88 659.136C688.718 659.136 689.54 659.152 690.347 659.183C691.185 659.214 691.899 659.26 692.488 659.322C692.426 661.246 692.38 663.17 692.349 665.094C692.318 667.018 692.287 668.849 692.256 670.586C692.256 672.293 692.256 673.782 692.256 675.055C692.256 679.275 692.302 682.936 692.395 686.039C692.519 689.142 692.69 691.889 692.907 694.278C691.232 694.34 689.525 694.371 687.787 694.371C686.081 694.402 684.374 694.418 682.667 694.418Z" fill="white"/>
<mask id="mask0_4_83" style="mask-type:luminance" maskUnits="userSpaceOnUse" x="510" y="308" width="211" height="188">
<path d="M510.866 308H720.937V495.174H510.866V308Z" fill="white"/>
</mask>
<g mask="url(#mask0_4_83)">
<path d="M716.561 440.345C662.107 418.532 610.957 400.776 559.471 395.418C564.626 394.163 569.654 392.434 574.389 390.092C601.868 376.484 609.001 349.252 590.295 329.246C576.703 314.705 553.18 308.031 530.792 310.694C508.847 346.099 510.93 379.116 521.64 411.751C531.697 442.426 550.802 471.158 586.108 494.822C619.879 452.927 664.148 431.405 716.561 440.345Z" fill="white"/>
</g>
<mask id="mask1_4_83" style="mask-type:luminance" maskUnits="userSpaceOnUse" x="360" y="308" width="227" height="258">
<path d="M360.047 308H586.276V565.709H360.047V308Z" fill="white"/>
</mask>
<g mask="url(#mask1_4_83)">
<path d="M530.792 310.694C522.396 311.689 514.148 313.954 506.658 317.659C479.158 331.267 472.046 358.513 490.73 378.504C497.4 385.622 506.447 390.826 516.547 394.025C468.027 396.046 418.329 410.94 364.465 445.625C364.465 445.625 463.503 407.909 521.555 555.989C525.573 566.245 545.457 566.459 549.875 556.265C560.059 532.799 572.179 512.089 586.108 494.822C525.047 445.58 502.828 375.458 530.792 310.694Z" fill="white"/>
</g>
<path d="M795.126 538.325C819.133 545.504 846.613 537.146 856.46 519.681C866.328 502.2 854.861 482.224 830.832 475.045C806.825 467.882 779.346 476.224 769.477 493.689C765.985 499.919 765.227 506.44 766.7 512.609C743.997 490.49 709.28 473.331 655.037 462.739C655.037 462.739 705.009 482.837 667.157 538.814C686.051 550.631 705.409 556.433 725.671 559.525C748.626 563.015 767.878 561.943 796.01 557.214C792.706 548.963 788.793 541.034 783.932 533.549C787.278 535.462 791.002 537.1 795.126 538.325Z" fill="white"/>
<mask id="mask2_4_83" style="mask-type:luminance" maskUnits="userSpaceOnUse" x="623" y="538" width="190" height="91">
<path d="M623.98 538.279H812.505V628.345H623.98V538.279Z" fill="white"/>
</mask>
<g mask="url(#mask2_4_83)">
<path d="M667.156 538.815C659.182 550.601 647.315 563.979 630.251 579.103C621.182 587.154 631.618 598.925 645.442 596.308C727.859 580.664 791.528 588.348 811.306 627.35C808.486 602.002 804.468 578.429 796.009 557.214C752.897 559.158 708.627 553.31 667.156 538.815Z" fill="white"/>
</g>
<mask id="mask3_4_83" style="mask-type:luminance" maskUnits="userSpaceOnUse" x="220" y="459" width="238" height="170">
<path d="M220 459.907H457.002V628.345H220V459.907Z" fill="white"/>
</mask>
<g mask="url(#mask3_4_83)">
<path d="M426.009 462.739C371.745 473.331 337.028 490.49 314.325 512.609C315.819 506.44 315.062 499.919 311.548 493.689C301.68 476.224 274.222 467.882 250.193 475.045C226.186 482.224 214.698 502.2 224.566 519.681C234.434 537.146 261.892 545.504 285.92 538.325C290.044 537.1 293.769 535.462 297.093 533.549C279.734 560.26 273.633 592.144 269.719 627.35C289.497 588.348 353.166 580.664 435.583 596.308C449.428 598.94 459.843 587.139 450.753 579.087C352.746 492.189 426.009 462.739 426.009 462.739Z" fill="white"/>
</g>
</svg>
