<svg width="1080" height="218" viewBox="0 0 1080 218" fill="none" xmlns="http://www.w3.org/2000/svg">
<path d="M564.951 175.004C563.534 175.004 561.776 174.975 559.678 174.919C557.637 174.919 555.54 174.89 553.385 174.834C551.288 174.777 549.445 174.72 547.858 174.664C547.858 172.112 547.858 168.994 547.858 165.309C547.914 161.567 547.943 157.57 547.943 153.318C548 149.01 548.028 144.729 548.028 140.477C548.085 136.168 548.141 132.143 548.198 128.401C548.255 124.603 548.311 121.371 548.368 118.707C544.116 118.763 539.977 118.82 535.952 118.877C531.927 118.877 528.242 118.877 524.897 118.877L525.237 110.373C528.865 110.373 532.777 110.401 536.973 110.458C541.168 110.458 545.448 110.486 549.814 110.543C554.179 110.543 558.403 110.571 562.485 110.628C566.623 110.628 570.422 110.656 573.88 110.713C577.339 110.713 580.258 110.741 582.64 110.798C585.077 110.798 586.721 110.826 587.572 110.883L587.827 118.026C584.709 118.14 581.137 118.253 577.112 118.367C573.087 118.423 568.863 118.48 564.441 118.537C564.497 121.088 564.554 124.149 564.611 127.721C564.668 131.293 564.696 135.176 564.696 139.372C564.753 143.51 564.781 147.706 564.781 151.958C564.838 156.21 564.866 160.32 564.866 164.289C564.923 168.257 564.951 171.829 564.951 175.004ZM600.85 161.567C599.376 161.567 597.845 161.567 596.258 161.567C594.727 161.511 593.14 161.426 591.496 161.312C590.248 165.734 589.001 170.355 587.754 175.174L577.549 174.494C580.724 163.778 584.267 152.978 588.179 142.093C592.091 131.151 596.258 120.521 600.68 110.203C602.778 109.976 605.102 109.777 607.654 109.607C610.261 109.437 612.926 109.352 615.647 109.352C619.106 117.743 622.791 127.438 626.703 138.436C630.615 149.435 634.64 161.284 638.779 173.983C635.49 174.55 632.372 174.975 629.424 175.259C626.533 175.542 623.585 175.684 620.58 175.684C619.389 170.922 618.057 165.904 616.583 160.632C611.537 161.256 606.293 161.567 600.85 161.567ZM604.167 119.302C602.976 122.534 601.474 127.012 599.66 132.738C597.902 138.465 595.946 145.183 593.792 152.893C596.06 153.177 598.384 153.375 600.765 153.488C603.203 153.602 605.811 153.659 608.589 153.659C609.609 153.659 610.63 153.659 611.65 153.659C612.728 153.602 613.72 153.573 614.627 153.573C613.38 149.038 612.104 144.644 610.8 140.392C609.553 136.083 608.362 132.143 607.228 128.571C606.094 124.943 605.074 121.853 604.167 119.302ZM654.246 175.684C650.674 166.897 646.904 156.975 642.936 145.92C639.024 134.808 635.083 123.186 631.115 111.053C634.573 110.429 637.748 110.004 640.639 109.777C643.588 109.494 646.479 109.352 649.314 109.352C650.618 114.455 651.978 119.699 653.396 125.085C654.87 130.471 656.344 135.715 657.818 140.817C659.348 145.92 660.794 150.625 662.155 154.934C663.515 159.243 664.706 162.843 665.727 165.734C666.974 162.333 668.476 157.769 670.234 152.043C671.991 146.317 673.89 139.825 675.931 132.568C677.972 125.312 680.042 117.686 682.139 109.692L692.344 110.373C689.226 121.201 685.683 132.115 681.714 143.113C677.802 154.055 673.635 164.629 669.213 174.834L654.246 175.684ZM743.154 175.259C741.169 175.089 737.995 174.947 733.629 174.834C729.32 174.664 724.133 174.55 718.067 174.494C712.057 174.437 705.509 174.409 698.422 174.409C698.309 172.821 698.167 170.412 697.997 167.18C697.884 163.892 697.742 160.15 697.572 155.955C697.402 151.759 697.232 147.394 697.061 142.858C696.891 138.323 696.75 133.957 696.636 129.762C696.523 125.51 696.41 121.74 696.296 118.452C696.239 115.163 696.211 112.697 696.211 111.053C698.706 111.053 701.569 111.053 704.8 111.053C708.088 110.996 711.518 110.94 715.09 110.883C718.662 110.826 722.205 110.77 725.72 110.713C729.235 110.599 732.495 110.514 735.5 110.458C738.561 110.344 741.141 110.259 743.239 110.203L743.579 119.302L713.219 118.281C713.219 121.626 713.219 125.028 713.219 128.486C713.219 131.888 713.248 135.233 713.304 138.521L741.878 137.586L741.538 146.94L713.389 145.75C713.446 149.775 713.503 153.602 713.559 157.23C713.616 160.859 713.701 164.147 713.815 167.095L743.494 166.075L743.154 175.259ZM784.12 175.769C781.058 168.059 777.94 161.596 774.765 156.38C771.59 151.107 768.585 147.366 765.751 145.154C765.864 149.917 765.949 154.849 766.006 159.952C766.062 165.054 766.091 170.071 766.091 175.004C763.54 175.004 760.847 174.947 758.012 174.834C755.234 174.777 752.824 174.72 750.783 174.664C750.783 169.845 750.783 164.827 750.783 159.611C750.783 154.396 750.755 149.265 750.698 144.219C750.698 139.117 750.67 134.354 750.613 129.932C750.557 125.51 750.5 121.655 750.443 118.367C750.443 115.078 750.415 112.64 750.358 111.053C753.25 110.599 756.113 110.288 758.947 110.118C761.839 109.891 764.532 109.777 767.026 109.777C773.376 109.777 778.932 110.458 783.694 111.818C788.457 113.122 792.17 115.022 794.835 117.516C797.499 119.954 798.832 122.93 798.832 126.445C798.832 128.997 798.123 131.434 796.706 133.759C795.345 136.083 793.474 138.096 791.093 139.797C788.712 141.498 786.019 142.688 783.014 143.369C783.921 144.446 785.055 145.977 786.416 147.961C787.776 149.888 789.194 152.071 790.668 154.509C792.198 156.89 793.672 159.3 795.09 161.737C796.507 164.175 797.783 166.471 798.917 168.626C800.051 170.723 800.873 172.424 801.383 173.728C800.476 173.898 799.228 174.097 797.641 174.323C796.11 174.55 794.466 174.749 792.709 174.919C791.008 175.146 789.364 175.316 787.776 175.429C786.246 175.599 785.027 175.712 784.12 175.769ZM764.73 116.411C764.9 118.962 765.07 122.449 765.24 126.871C765.411 131.293 765.581 136.225 765.751 141.668C771.363 141.441 775.786 140.279 779.017 138.181C782.305 136.027 783.949 133.192 783.949 129.677C783.949 127.126 783.099 124.858 781.398 122.874C779.754 120.833 777.486 119.245 774.595 118.111C771.704 116.978 768.415 116.411 764.73 116.411ZM806.914 174.579C806.914 172.027 806.942 168.938 806.999 165.309C807.056 161.624 807.112 157.684 807.169 153.488C807.282 149.236 807.396 144.956 807.509 140.647C807.622 136.282 807.736 132.143 807.849 128.231C808.019 124.263 808.161 120.776 808.274 117.771C808.388 114.71 808.501 112.385 808.615 110.798C810.089 110.684 812.158 110.599 814.823 110.543C817.544 110.486 820.917 110.458 824.943 110.458C829.591 117.318 834.439 124.631 839.485 132.398C844.587 140.109 849.774 148.358 855.047 157.145L853.176 110.373C854.65 110.373 856.238 110.429 857.938 110.543C859.696 110.599 861.397 110.684 863.041 110.798C863.041 115.56 863.013 120.663 862.956 126.105C862.899 131.491 862.842 136.849 862.786 142.178C862.729 147.507 862.644 152.468 862.531 157.06C862.417 161.596 862.304 165.423 862.19 168.541C862.134 171.659 862.049 173.7 861.935 174.664C860.745 174.72 859.129 174.777 857.088 174.834C855.104 174.89 853.091 174.919 851.05 174.919C849.009 174.975 847.337 175.004 846.033 175.004C841.554 167.69 836.565 159.98 831.065 151.873C825.623 143.765 820.124 135.715 814.568 127.721L816.779 175.089C813.604 175.089 810.315 174.919 806.914 174.579ZM899.589 175.259C895.166 175.259 891.084 174.465 887.343 172.878C883.658 171.234 880.426 168.938 877.648 165.989C874.927 163.041 872.801 159.583 871.27 155.614C869.739 151.589 868.974 147.224 868.974 142.518C868.974 137.813 869.739 133.475 871.27 129.507C872.801 125.482 874.927 121.995 877.648 119.047C880.426 116.099 883.658 113.831 887.343 112.244C891.084 110.599 895.166 109.777 899.589 109.777C904.011 109.777 908.093 110.599 911.834 112.244C915.576 113.831 918.808 116.099 921.529 119.047C924.307 121.995 926.433 125.482 927.907 129.507C929.438 133.475 930.203 137.813 930.203 142.518C930.203 147.224 929.438 151.589 927.907 155.614C926.433 159.583 924.307 163.041 921.529 165.989C918.808 168.938 915.576 171.234 911.834 172.878C908.093 174.465 904.011 175.259 899.589 175.259ZM901.374 168.116C904.152 168.116 906.562 167.18 908.603 165.309C910.644 163.438 912.231 160.802 913.365 157.4C914.499 153.999 915.066 150.03 915.066 145.495C915.066 140.109 914.301 135.261 912.77 130.953C911.239 126.644 909.17 123.242 906.562 120.748C903.954 118.196 901.034 116.921 897.803 116.921C895.081 116.921 892.672 117.856 890.574 119.727C888.533 121.598 886.946 124.234 885.812 127.636C884.678 131.038 884.111 135.006 884.111 139.542C884.111 144.871 884.876 149.718 886.407 154.084C887.938 158.392 890.007 161.822 892.615 164.374C895.223 166.868 898.143 168.116 901.374 168.116ZM985.035 175.259C983.731 175.202 981.576 175.146 978.572 175.089C975.567 175.032 971.91 174.975 967.601 174.919C963.349 174.919 958.644 174.89 953.485 174.834C948.382 174.834 943.081 174.834 937.582 174.834C937.072 163.155 936.703 152.043 936.476 141.498C936.25 130.953 936.136 120.691 936.136 110.713C937.44 110.656 939.708 110.628 942.94 110.628C946.171 110.571 949.799 110.543 953.825 110.543C953.825 114.681 953.796 119.245 953.74 124.234C953.74 129.223 953.683 134.326 953.57 139.542C953.513 144.758 953.428 149.86 953.315 154.849C953.258 159.781 953.144 164.345 952.974 168.541C958.871 168.541 964.597 168.484 970.153 168.371C975.709 168.201 980.584 168.002 984.78 167.775L985.035 175.259ZM1012.52 161.567C1011.04 161.567 1009.51 161.567 1007.93 161.567C1006.4 161.511 1004.81 161.426 1003.16 161.312C1001.92 165.734 1000.67 170.355 999.422 175.174L989.217 174.494C992.392 163.778 995.935 152.978 999.847 142.093C1003.76 131.151 1007.93 120.521 1012.35 110.203C1014.45 109.976 1016.77 109.777 1019.32 109.607C1021.93 109.437 1024.59 109.352 1027.32 109.352C1030.77 117.743 1034.46 127.438 1038.37 138.436C1042.28 149.435 1046.31 161.284 1050.45 173.983C1047.16 174.55 1044.04 174.975 1041.09 175.259C1038.2 175.542 1035.25 175.684 1032.25 175.684C1031.06 170.922 1029.72 165.904 1028.25 160.632C1023.21 161.256 1017.96 161.567 1012.52 161.567ZM1015.83 119.302C1014.64 122.534 1013.14 127.012 1011.33 132.738C1009.57 138.465 1007.61 145.183 1005.46 152.893C1007.73 153.177 1010.05 153.375 1012.43 153.488C1014.87 153.602 1017.48 153.659 1020.26 153.659C1021.28 153.659 1022.3 153.659 1023.32 153.659C1024.4 153.602 1025.39 153.573 1026.29 153.573C1025.05 149.038 1023.77 144.644 1022.47 140.392C1021.22 136.083 1020.03 132.143 1018.9 128.571C1017.76 124.943 1016.74 121.853 1015.83 119.302Z" fill="black"/>
<path d="M661.153 87.696C658.942 87.696 656.901 87.2991 655.03 86.5054C653.188 85.6834 651.572 84.5353 650.183 83.0613C648.822 81.5872 647.759 79.8581 646.994 77.8738C646.229 75.8611 645.846 73.6784 645.846 71.3256C645.846 68.9728 646.229 66.8043 646.994 64.82C647.759 62.8073 648.822 61.064 650.183 59.59C651.572 58.1159 653.188 56.982 655.03 56.1883C656.901 55.3663 658.942 54.9552 661.153 54.9552C663.364 54.9552 665.405 55.3663 667.276 56.1883C669.147 56.982 670.763 58.1159 672.124 59.59C673.513 61.064 674.576 62.8073 675.313 64.82C676.078 66.8043 676.461 68.9728 676.461 71.3256C676.461 73.6784 676.078 75.8611 675.313 77.8738C674.576 79.8581 673.513 81.5872 672.124 83.0613C670.763 84.5353 669.147 85.6834 667.276 86.5054C665.405 87.2991 663.364 87.696 661.153 87.696ZM662.046 84.1243C663.435 84.1243 664.64 83.6566 665.66 82.7211C666.681 81.7857 667.475 80.4675 668.042 78.7667C668.609 77.0659 668.892 75.0816 668.892 72.8138C668.892 70.1209 668.509 67.6972 667.744 65.5428C666.979 63.3885 665.944 61.6876 664.64 60.4404C663.336 59.1648 661.876 58.5269 660.26 58.5269C658.9 58.5269 657.695 58.9947 656.646 59.9301C655.626 60.8656 654.832 62.1837 654.265 63.8845C653.698 65.5853 653.415 67.5696 653.415 69.8374C653.415 72.502 653.797 74.9257 654.563 77.1084C655.328 79.2628 656.363 80.9778 657.667 82.2534C658.971 83.5006 660.43 84.1243 662.046 84.1243ZM696.308 87.9511C694.777 84.0959 693.218 80.8644 691.63 78.2565C690.043 75.6202 688.541 73.7493 687.123 72.6437C687.18 75.0249 687.223 77.4911 687.251 80.0423C687.279 82.5935 687.293 85.1023 687.293 87.5684C686.018 87.5684 684.671 87.5401 683.254 87.4834C681.865 87.4551 680.66 87.4267 679.64 87.3984C679.64 84.9889 679.64 82.4802 679.64 79.8722C679.64 77.2643 679.626 74.6989 679.597 72.176C679.597 69.6248 679.583 67.2436 679.555 65.0326C679.526 62.8215 679.498 60.8939 679.47 59.2498C679.47 57.6057 679.455 56.3867 679.427 55.593C680.873 55.3663 682.304 55.2103 683.722 55.1253C685.167 55.0119 686.514 54.9552 687.761 54.9552C690.936 54.9552 693.714 55.2954 696.095 55.9757C698.476 56.6277 700.333 57.5773 701.665 58.8246C702.998 60.0435 703.664 61.5317 703.664 63.2892C703.664 64.5649 703.309 65.7838 702.601 66.946C701.92 68.1082 700.985 69.1145 699.794 69.965C698.604 70.8154 697.257 71.4107 695.755 71.7508C696.209 72.2894 696.775 73.0548 697.456 74.0469C698.136 75.0107 698.845 76.1021 699.582 77.321C700.347 78.5116 701.084 79.7163 701.793 80.9352C702.502 82.1542 703.139 83.3022 703.706 84.3794C704.273 85.4282 704.684 86.2787 704.939 86.9306C704.486 87.0157 703.862 87.1149 703.068 87.2283C702.303 87.3417 701.481 87.4409 700.602 87.5259C699.752 87.6393 698.93 87.7243 698.136 87.781C697.371 87.8661 696.761 87.9228 696.308 87.9511ZM686.613 58.2718C686.698 59.5474 686.783 61.2908 686.868 63.5018C686.953 65.7129 687.038 68.1791 687.123 70.9004C689.93 70.787 692.141 70.2059 693.756 69.1571C695.401 68.0799 696.223 66.6625 696.223 64.905C696.223 63.6294 695.797 62.4955 694.947 61.5034C694.125 60.4829 692.991 59.6892 691.545 59.1222C690.1 58.5553 688.456 58.2718 686.613 58.2718ZM717.867 80.8502C717.13 80.8502 716.365 80.8502 715.571 80.8502C714.806 80.8219 714.012 80.7793 713.19 80.7226C712.566 82.9337 711.943 85.244 711.319 87.6535L706.217 87.3133C707.804 81.9557 709.576 76.5556 711.532 71.113C713.488 65.642 715.571 60.327 717.782 55.1678C718.831 55.0544 719.993 54.9552 721.269 54.8702C722.573 54.7851 723.905 54.7426 725.266 54.7426C726.995 58.938 728.838 63.7853 730.794 69.2846C732.749 74.7839 734.762 80.7085 736.831 87.0582C735.187 87.3417 733.628 87.5543 732.154 87.696C730.708 87.8377 729.234 87.9086 727.732 87.9086C727.137 85.5275 726.471 83.0187 725.734 80.3825C723.211 80.6943 720.589 80.8502 717.867 80.8502ZM719.526 59.7175C718.93 61.3333 718.179 63.5727 717.272 66.4358C716.393 69.2988 715.415 72.6579 714.338 76.5131C715.472 76.6548 716.634 76.7541 717.825 76.8108C719.044 76.8675 720.348 76.8958 721.737 76.8958C722.247 76.8958 722.757 76.8958 723.267 76.8958C723.806 76.8675 724.302 76.8533 724.756 76.8533C724.132 74.5855 723.494 72.3886 722.842 70.2626C722.219 68.1082 721.623 66.1381 721.056 64.3523C720.489 62.538 719.979 60.9931 719.526 59.7175ZM751.739 87.5684C751.031 87.5684 750.152 87.5543 749.103 87.5259C748.083 87.5259 747.034 87.5117 745.957 87.4834C744.908 87.4551 743.987 87.4267 743.193 87.3984C743.193 86.1227 743.193 84.5637 743.193 82.7211C743.221 80.8502 743.235 78.8517 743.235 76.7257C743.264 74.5713 743.278 72.4311 743.278 70.3051C743.306 68.1508 743.335 66.1381 743.363 64.2672C743.391 62.368 743.42 60.7522 743.448 59.4199C741.322 59.4482 739.253 59.4766 737.24 59.5049C735.227 59.5049 733.385 59.5049 731.712 59.5049L731.882 55.2529C733.697 55.2529 735.653 55.267 737.75 55.2954C739.848 55.2954 741.988 55.3096 744.171 55.3379C746.354 55.3379 748.465 55.3521 750.506 55.3804C752.576 55.3804 754.475 55.3946 756.204 55.423C757.933 55.423 759.393 55.4371 760.584 55.4655C761.803 55.4655 762.625 55.4796 763.05 55.508L763.178 59.0797C761.618 59.1364 759.833 59.1931 757.82 59.2498C755.807 59.2781 753.695 59.3065 751.484 59.3348C751.513 60.6104 751.541 62.1412 751.569 63.927C751.598 65.7129 751.612 67.6547 751.612 69.7524C751.64 71.8217 751.654 73.9194 751.654 76.0454C751.683 78.1714 751.697 80.2266 751.697 82.2109C751.725 84.1951 751.739 85.981 751.739 87.5684ZM777.42 87.696C775.209 87.696 773.168 87.2991 771.297 86.5054C769.455 85.6834 767.839 84.5353 766.45 83.0613C765.089 81.5872 764.026 79.8581 763.261 77.8738C762.496 75.8611 762.113 73.6784 762.113 71.3256C762.113 68.9728 762.496 66.8043 763.261 64.82C764.026 62.8073 765.089 61.064 766.45 59.59C767.839 58.1159 769.455 56.982 771.297 56.1883C773.168 55.3663 775.209 54.9552 777.42 54.9552C779.631 54.9552 781.672 55.3663 783.543 56.1883C785.414 56.982 787.03 58.1159 788.39 59.59C789.779 61.064 790.843 62.8073 791.58 64.82C792.345 66.8043 792.728 68.9728 792.728 71.3256C792.728 73.6784 792.345 75.8611 791.58 77.8738C790.843 79.8581 789.779 81.5872 788.39 83.0613C787.03 84.5353 785.414 85.6834 783.543 86.5054C781.672 87.2991 779.631 87.696 777.42 87.696ZM778.313 84.1243C779.702 84.1243 780.907 83.6566 781.927 82.7211C782.948 81.7857 783.742 80.4675 784.309 78.7667C784.875 77.0659 785.159 75.0816 785.159 72.8138C785.159 70.1209 784.776 67.6972 784.011 65.5428C783.246 63.3885 782.211 61.6876 780.907 60.4404C779.603 59.1648 778.143 58.5269 776.527 58.5269C775.167 58.5269 773.962 58.9947 772.913 59.9301C771.893 60.8656 771.099 62.1837 770.532 63.8845C769.965 65.5853 769.681 67.5696 769.681 69.8374C769.681 72.502 770.064 74.9257 770.83 77.1084C771.595 79.2628 772.63 80.9778 773.934 82.2534C775.237 83.5006 776.697 84.1243 778.313 84.1243ZM812.575 87.9511C811.044 84.0959 809.485 80.8644 807.897 78.2565C806.31 75.6202 804.808 73.7493 803.39 72.6437C803.447 75.0249 803.489 77.4911 803.518 80.0423C803.546 82.5935 803.56 85.1023 803.56 87.5684C802.285 87.5684 800.938 87.5401 799.521 87.4834C798.132 87.4551 796.927 87.4267 795.907 87.3984C795.907 84.9889 795.907 82.4802 795.907 79.8722C795.907 77.2643 795.892 74.6989 795.864 72.176C795.864 69.6248 795.85 67.2436 795.822 65.0326C795.793 62.8215 795.765 60.8939 795.737 59.2498C795.737 57.6057 795.722 56.3867 795.694 55.593C797.14 55.3663 798.571 55.2103 799.989 55.1253C801.434 55.0119 802.781 54.9552 804.028 54.9552C807.203 54.9552 809.981 55.2954 812.362 55.9757C814.743 56.6277 816.6 57.5773 817.932 58.8246C819.265 60.0435 819.931 61.5317 819.931 63.2892C819.931 64.5649 819.576 65.7838 818.868 66.946C818.187 68.1082 817.252 69.1145 816.061 69.965C814.871 70.8154 813.524 71.4107 812.022 71.7508C812.475 72.2894 813.042 73.0548 813.723 74.0469C814.403 75.0107 815.112 76.1021 815.849 77.321C816.614 78.5116 817.351 79.7163 818.06 80.9352C818.768 82.1542 819.406 83.3022 819.973 84.3794C820.54 85.4282 820.951 86.2787 821.206 86.9306C820.753 87.0157 820.129 87.1149 819.335 87.2283C818.57 87.3417 817.748 87.4409 816.869 87.5259C816.019 87.6393 815.197 87.7243 814.403 87.781C813.638 87.8661 813.028 87.9228 812.575 87.9511ZM802.88 58.2718C802.965 59.5474 803.05 61.2908 803.135 63.5018C803.22 65.7129 803.305 68.1791 803.39 70.9004C806.197 70.787 808.408 70.2059 810.023 69.1571C811.668 68.0799 812.49 66.6625 812.49 64.905C812.49 63.6294 812.064 62.4955 811.214 61.5034C810.392 60.4829 809.258 59.6892 807.812 59.1222C806.367 58.5553 804.723 58.2718 802.88 58.2718ZM823.992 87.5259C824.332 80.6376 824.502 73.6359 824.502 66.5208C824.502 65.3302 824.488 64.0263 824.459 62.6089C824.459 61.1632 824.445 59.8026 824.417 58.5269C824.417 57.2513 824.403 56.2308 824.374 55.4655C824.715 55.4088 825.282 55.3663 826.075 55.3379C826.897 55.3096 827.79 55.2954 828.754 55.2954C829.519 55.2954 830.271 55.3096 831.008 55.3379C831.773 55.3663 832.425 55.4088 832.964 55.4655C832.907 57.223 832.864 58.9805 832.836 60.738C832.808 62.4955 832.779 64.168 832.751 65.7554C832.751 67.3145 832.751 68.6752 832.751 69.8374C832.751 73.6926 832.793 77.0375 832.879 79.8722C832.992 82.7069 833.148 85.2156 833.346 87.3984C831.816 87.4551 830.256 87.4834 828.669 87.4834C827.11 87.5117 825.551 87.5259 823.992 87.5259ZM852.495 87.696C850.284 87.696 848.243 87.2991 846.372 86.5054C844.53 85.6834 842.914 84.5353 841.525 83.0613C840.164 81.5872 839.101 79.8581 838.336 77.8738C837.571 75.8611 837.188 73.6784 837.188 71.3256C837.188 68.9728 837.571 66.8043 838.336 64.82C839.101 62.8073 840.164 61.064 841.525 59.59C842.914 58.1159 844.53 56.982 846.372 56.1883C848.243 55.3663 850.284 54.9552 852.495 54.9552C854.706 54.9552 856.747 55.3663 858.618 56.1883C860.489 56.982 862.105 58.1159 863.466 59.59C864.855 61.064 865.918 62.8073 866.655 64.82C867.42 66.8043 867.803 68.9728 867.803 71.3256C867.803 73.6784 867.42 75.8611 866.655 77.8738C865.918 79.8581 864.855 81.5872 863.466 83.0613C862.105 84.5353 860.489 85.6834 858.618 86.5054C856.747 87.2991 854.706 87.696 852.495 87.696ZM853.388 84.1243C854.777 84.1243 855.982 83.6566 857.003 82.7211C858.023 81.7857 858.817 80.4675 859.384 78.7667C859.951 77.0659 860.234 75.0816 860.234 72.8138C860.234 70.1209 859.851 67.6972 859.086 65.5428C858.321 63.3885 857.286 61.6876 855.982 60.4404C854.678 59.1648 853.218 58.5269 851.603 58.5269C850.242 58.5269 849.037 58.9947 847.988 59.9301C846.968 60.8656 846.174 62.1837 845.607 63.8845C845.04 65.5853 844.757 67.5696 844.757 69.8374C844.757 72.502 845.139 74.9257 845.905 77.1084C846.67 79.2628 847.705 80.9778 849.009 82.2534C850.313 83.5006 851.773 84.1243 853.388 84.1243ZM892.982 87.696C892.16 87.696 891.295 87.6677 890.388 87.611C889.509 87.5826 888.644 87.5401 887.794 87.4834C887.794 84.3936 887.794 81.2896 887.794 78.1714C887.822 75.0532 887.837 72.0626 887.837 69.1996C887.865 66.3365 887.893 63.7286 887.922 61.3758C887.978 58.9947 888.035 56.9962 888.092 55.3804C889.197 55.2387 890.274 55.1395 891.323 55.0828C892.372 54.9977 893.393 54.9552 894.385 54.9552C900.905 54.9552 905.823 56.3017 909.139 58.9947C912.484 61.6593 914.157 65.5995 914.157 70.8154C914.157 76.3147 912.328 80.51 908.672 83.4014C905.043 86.2645 899.813 87.696 892.982 87.696ZM895.32 84.1668C898.013 84.1668 900.182 83.7841 901.826 83.0187C903.498 82.225 904.717 80.9778 905.483 79.2769C906.248 77.5761 906.631 75.3225 906.631 72.5162C906.631 68.0657 905.724 64.6924 903.909 62.3963C902.123 60.1002 899.345 58.7679 895.575 58.3994C895.547 59.1648 895.519 60.327 895.49 61.8861C895.462 63.4168 895.434 65.1743 895.405 67.1586C895.405 69.1145 895.391 71.1414 895.363 73.239C895.363 75.3367 895.349 77.3493 895.32 79.2769C895.32 81.1762 895.32 82.8061 895.32 84.1668ZM918.002 87.5259C918.342 80.6376 918.512 73.6359 918.512 66.5208C918.512 65.3302 918.498 64.0263 918.47 62.6089C918.47 61.1632 918.455 59.8026 918.427 58.5269C918.427 57.2513 918.413 56.2308 918.385 55.4655C918.725 55.4088 919.292 55.3663 920.085 55.3379C920.907 55.3096 921.8 55.2954 922.764 55.2954C923.53 55.2954 924.281 55.3096 925.018 55.3379C925.783 55.3663 926.435 55.4088 926.974 55.4655C926.917 57.223 926.874 58.9805 926.846 60.738C926.818 62.4955 926.789 64.168 926.761 65.7554C926.761 67.3145 926.761 68.6752 926.761 69.8374C926.761 73.6926 926.804 77.0375 926.889 79.8722C927.002 82.7069 927.158 85.2156 927.356 87.3984C925.826 87.4551 924.267 87.4834 922.679 87.4834C921.12 87.5117 919.561 87.5259 918.002 87.5259Z" fill="black"/>
<mask id="mask0_14_254" style="mask-type:luminance" maskUnits="userSpaceOnUse" x="197" y="0" width="144" height="128">
<path d="M197.726 0H340.529V127.378H197.726V0Z" fill="white"/>
</mask>
<g mask="url(#mask0_14_254)">
<path d="M337.554 90.0643C300.537 75.2203 265.766 63.1367 230.766 59.4908C234.271 58.6366 237.689 57.4595 240.907 55.8657C259.587 46.6051 264.436 28.0735 251.721 14.4586C242.481 4.56256 226.49 0.0208055 211.271 1.83334C196.353 25.9276 197.769 48.3968 205.049 70.6056C211.886 91.481 224.874 111.034 248.874 127.138C271.831 98.627 301.924 83.9809 337.554 90.0643Z" fill="black"/>
</g>
<mask id="mask1_14_254" style="mask-type:luminance" maskUnits="userSpaceOnUse" x="95" y="0" width="154" height="176">
<path d="M95.2014 0H248.989V175.379H95.2014V0Z" fill="white"/>
</mask>
<g mask="url(#mask1_14_254)">
<path d="M211.271 1.83325C205.564 2.51035 199.957 4.05205 194.866 6.57293C176.171 15.8335 171.337 34.3756 184.038 47.9801C188.572 52.8239 194.723 56.3656 201.588 58.5428C168.605 59.9178 134.821 70.0534 98.2051 93.6581C98.2051 93.6581 165.53 67.9909 204.992 168.764C207.724 175.743 221.241 175.889 224.244 168.951C231.167 152.982 239.406 138.888 248.874 127.138C207.367 93.6268 192.262 45.9071 211.271 1.83325Z" fill="black"/>
</g>
<path d="M390.961 156.743C407.281 161.628 425.961 155.941 432.655 144.055C439.363 132.159 431.568 118.565 415.234 113.679C398.914 108.804 380.234 114.481 373.526 126.367C371.152 130.607 370.637 135.044 371.638 139.242C356.205 124.19 332.605 112.513 295.731 105.304C295.731 105.304 329.701 118.982 303.97 157.076C316.814 165.118 329.973 169.066 343.747 171.17C359.351 173.545 372.439 172.816 391.562 169.597C389.317 163.983 386.656 158.587 383.352 153.493C385.626 154.795 388.158 155.909 390.961 156.743Z" fill="black"/>
<mask id="mask2_14_254" style="mask-type:luminance" maskUnits="userSpaceOnUse" x="274" y="156" width="129" height="63">
<path d="M274.62 156.711H402.776V218.004H274.62V156.711Z" fill="white"/>
</mask>
<g mask="url(#mask2_14_254)">
<path d="M303.97 157.076C298.549 165.097 290.482 174.202 278.882 184.493C272.717 189.973 279.812 197.983 289.209 196.202C345.234 185.556 388.515 190.785 401.96 217.327C400.044 200.077 397.312 184.035 391.562 169.597C362.255 170.92 332.161 166.941 303.97 157.076Z" fill="black"/>
</g>
<mask id="mask3_14_254" style="mask-type:luminance" maskUnits="userSpaceOnUse" x="0" y="103" width="162" height="116">
<path d="M0 103.377H161.11V218.005H0V103.377Z" fill="white"/>
</mask>
<g mask="url(#mask3_14_254)">
<path d="M140.042 105.304C103.154 112.513 79.5538 124.19 64.1208 139.243C65.1363 135.045 64.6214 130.607 62.2328 126.367C55.5246 114.482 36.859 108.805 20.5249 113.68C4.20501 118.565 -3.6045 132.159 3.10367 144.055C9.81183 155.941 28.4774 161.629 44.8116 156.743C47.615 155.91 50.1466 154.795 52.4065 153.493C40.6064 171.67 36.4585 193.369 33.7982 217.328C47.2431 190.785 90.5243 185.556 146.55 196.202C155.961 197.994 163.041 189.962 156.862 184.483C90.2383 125.347 140.042 105.304 140.042 105.304Z" fill="black"/>
</g>
</svg>
