<svg width="1080" height="821" viewBox="0 0 1080 821" fill="none" xmlns="http://www.w3.org/2000/svg">
<path d="M102.868 819.426C100.087 819.426 96.6372 819.37 92.5201 819.259C88.5142 819.259 84.3972 819.204 80.1688 819.092C76.0517 818.981 72.4353 818.87 69.3197 818.758C69.3197 813.751 69.3197 807.631 69.3197 800.398C69.431 793.054 69.4866 785.21 69.4866 776.864C69.5979 768.408 69.6535 760.006 69.6535 751.661C69.7648 743.204 69.8761 735.304 69.9873 727.96C70.0986 720.505 70.2099 714.162 70.3212 708.932C61.9757 709.044 53.8528 709.155 45.9524 709.266C38.0521 709.266 30.8193 709.266 24.2542 709.266L24.9219 692.575C32.0433 692.575 39.7212 692.631 47.9553 692.742C56.1895 692.742 64.5906 692.798 73.1586 692.909C81.7266 692.909 90.0164 692.965 98.0281 693.076C106.151 693.076 113.606 693.132 120.394 693.243C127.182 693.243 132.912 693.298 137.586 693.41C142.37 693.41 145.597 693.465 147.266 693.577L147.767 707.597C141.647 707.82 134.637 708.042 126.736 708.265C118.836 708.376 110.546 708.487 101.867 708.598C101.978 713.606 102.09 719.614 102.201 726.625C102.312 733.635 102.368 741.257 102.368 749.491C102.479 757.614 102.535 765.848 102.535 774.194C102.646 782.539 102.702 790.606 102.702 798.396C102.813 806.185 102.868 813.195 102.868 819.426ZM173.328 793.054C170.434 793.054 167.43 793.054 164.314 793.054C161.31 792.943 158.194 792.776 154.968 792.554C152.52 801.233 150.072 810.302 147.624 819.76L127.594 818.425C133.826 797.394 140.78 776.197 148.458 754.832C156.136 733.357 164.314 712.493 172.994 692.241C177.111 691.796 181.673 691.407 186.68 691.073C191.799 690.739 197.029 690.572 202.37 690.572C209.157 707.041 216.39 726.068 224.068 747.655C231.746 769.242 239.646 792.498 247.769 817.423C241.315 818.536 235.195 819.37 229.409 819.927C223.734 820.483 217.948 820.761 212.05 820.761C209.714 811.414 207.099 801.567 204.206 791.218C194.302 792.442 184.01 793.054 173.328 793.054ZM179.837 710.101C177.5 716.443 174.552 725.234 170.991 736.472C167.541 747.711 163.702 760.897 159.474 776.03C163.925 776.586 168.487 776.976 173.161 777.198C177.945 777.421 183.064 777.532 188.516 777.532C190.519 777.532 192.522 777.532 194.525 777.532C196.639 777.421 198.586 777.365 200.367 777.365C197.919 768.463 195.415 759.84 192.856 751.494C190.408 743.037 188.071 735.304 185.846 728.294C183.62 721.172 181.617 715.108 179.837 710.101ZM278.127 820.761C271.117 803.514 263.717 784.041 255.928 762.343C248.25 740.534 240.517 717.723 232.728 693.91C239.515 692.686 245.746 691.852 251.421 691.407C257.208 690.85 262.882 690.572 268.446 690.572C271.005 700.587 273.676 710.88 276.458 721.45C279.351 732.021 282.244 742.314 285.137 752.329C288.141 762.343 290.979 771.579 293.649 780.036C296.32 788.492 298.657 795.558 300.66 801.233C303.108 794.557 306.056 785.599 309.506 774.361C312.955 763.122 316.683 750.381 320.689 736.138C324.694 721.896 328.756 706.929 332.873 691.24L352.902 692.575C346.782 713.828 339.828 735.248 332.038 756.835C324.361 778.311 316.182 799.063 307.503 819.092L278.127 820.761ZM452.625 819.927C448.731 819.593 442.499 819.315 433.931 819.092C425.475 818.758 415.293 818.536 403.387 818.425C391.592 818.313 378.74 818.258 364.831 818.258C364.608 815.142 364.33 810.413 363.996 804.07C363.774 797.617 363.496 790.273 363.162 782.038C362.828 773.804 362.494 765.236 362.16 756.334C361.827 747.433 361.548 738.865 361.326 730.63C361.103 722.285 360.881 714.885 360.658 708.432C360.547 701.978 360.491 697.137 360.491 693.91C365.387 693.91 371.007 693.91 377.349 693.91C383.803 693.799 390.535 693.688 397.545 693.577C404.555 693.465 411.51 693.354 418.409 693.243C425.308 693.02 431.706 692.853 437.603 692.742C443.612 692.52 448.675 692.353 452.792 692.241L453.46 710.101L393.873 708.098C393.873 714.663 393.873 721.339 393.873 728.127C393.873 734.803 393.929 741.368 394.04 747.822L450.121 745.986L449.454 764.346L394.207 762.009C394.318 769.91 394.429 777.421 394.541 784.542C394.652 791.664 394.819 798.117 395.041 803.904L453.293 801.901L452.625 819.927ZM533.028 820.928C527.02 805.795 520.9 793.11 514.668 782.873C508.437 772.525 502.54 765.181 496.976 760.841C497.198 770.188 497.365 779.869 497.477 789.883C497.588 799.898 497.644 809.745 497.644 819.426C492.636 819.426 487.351 819.315 481.787 819.092C476.335 818.981 471.606 818.87 467.6 818.758C467.6 809.3 467.6 799.453 467.6 789.216C467.6 778.978 467.544 768.908 467.433 759.005C467.433 748.99 467.377 739.644 467.266 730.964C467.155 722.285 467.044 714.718 466.932 708.265C466.932 701.811 466.877 697.026 466.765 693.91C472.44 693.02 478.06 692.408 483.623 692.074C489.298 691.629 494.584 691.407 499.48 691.407C511.942 691.407 522.847 692.742 532.194 695.413C541.541 697.972 548.829 701.7 554.059 706.596C559.289 711.38 561.904 717.222 561.904 724.121C561.904 729.128 560.513 733.913 557.731 738.475C555.06 743.037 551.388 746.988 546.715 750.326C542.041 753.664 536.756 756.001 530.858 757.336C532.639 759.45 534.864 762.454 537.535 766.349C540.205 770.132 542.987 774.416 545.88 779.201C548.885 783.874 551.778 788.604 554.56 793.388C557.341 798.173 559.845 802.68 562.07 806.908C564.296 811.025 565.909 814.363 566.911 816.922C565.13 817.256 562.682 817.646 559.567 818.091C556.562 818.536 553.336 818.925 549.886 819.259C546.548 819.704 543.321 820.038 540.205 820.261C537.201 820.594 534.809 820.817 533.028 820.928ZM494.973 704.426C495.307 709.433 495.641 716.276 495.974 724.956C496.308 733.635 496.642 743.316 496.976 753.998C507.992 753.553 516.671 751.272 523.014 747.154C529.468 742.926 532.694 737.362 532.694 730.464C532.694 725.456 531.025 721.005 527.687 717.111C524.46 713.105 520.009 709.989 514.334 707.764C508.66 705.538 502.206 704.426 494.973 704.426ZM577.766 818.592C577.766 813.584 577.822 807.52 577.933 800.398C578.045 793.166 578.156 785.432 578.267 777.198C578.49 768.853 578.712 760.452 578.935 751.995C579.157 743.427 579.38 735.304 579.602 727.626C579.936 719.837 580.214 712.994 580.437 707.096C580.66 701.088 580.882 696.525 581.105 693.41C583.998 693.187 588.059 693.02 593.289 692.909C598.63 692.798 605.251 692.742 613.151 692.742C622.276 706.206 631.789 720.56 641.693 735.805C651.707 750.938 661.889 767.128 672.237 784.375L668.565 692.575C671.458 692.575 674.574 692.686 677.912 692.909C681.361 693.02 684.7 693.187 687.926 693.41C687.926 702.757 687.871 712.771 687.76 723.453C687.648 734.024 687.537 744.54 687.426 754.999C687.314 765.459 687.148 775.195 686.925 784.208C686.702 793.11 686.48 800.621 686.257 806.741C686.146 812.861 685.979 816.867 685.757 818.758C683.42 818.87 680.249 818.981 676.243 819.092C672.348 819.204 668.398 819.259 664.392 819.259C660.386 819.37 657.104 819.426 654.545 819.426C645.754 805.072 635.962 789.939 625.169 774.027C614.486 758.115 603.693 742.314 592.788 726.625L597.128 819.593C590.897 819.593 584.443 819.259 577.766 818.592ZM759.658 819.927C750.979 819.927 742.967 818.369 735.623 815.253C728.391 812.026 722.048 807.52 716.596 801.734C711.255 795.948 707.082 789.16 704.078 781.371C701.073 773.47 699.571 764.902 699.571 755.667C699.571 746.431 701.073 737.919 704.078 730.13C707.082 722.229 711.255 715.386 716.596 709.6C722.048 703.814 728.391 699.363 735.623 696.247C742.967 693.02 750.979 691.407 759.658 691.407C768.338 691.407 776.349 693.02 783.693 696.247C791.037 699.363 797.38 703.814 802.721 709.6C808.173 715.386 812.346 722.229 815.239 730.13C818.243 737.919 819.746 746.431 819.746 755.667C819.746 764.902 818.243 773.47 815.239 781.371C812.346 789.16 808.173 795.948 802.721 801.734C797.38 807.52 791.037 812.026 783.693 815.253C776.349 818.369 768.338 819.927 759.658 819.927ZM763.163 805.906C768.616 805.906 773.345 804.07 777.351 800.398C781.356 796.726 784.472 791.552 786.698 784.876C788.923 778.2 790.036 770.41 790.036 761.509C790.036 750.938 788.534 741.424 785.529 732.967C782.525 724.51 778.463 717.834 773.345 712.938C768.226 707.931 762.496 705.427 756.153 705.427C750.812 705.427 746.083 707.263 741.966 710.935C737.96 714.607 734.844 719.781 732.619 726.458C730.394 733.134 729.281 740.923 729.281 749.825C729.281 760.285 730.783 769.798 733.787 778.366C736.792 786.823 740.853 793.555 745.972 798.562C751.09 803.458 756.821 805.906 763.163 805.906ZM927.363 819.927C924.803 819.816 920.575 819.704 914.678 819.593C908.78 819.482 901.603 819.37 893.146 819.259C884.801 819.259 875.565 819.204 865.439 819.092C855.425 819.092 845.021 819.092 834.227 819.092C833.226 796.17 832.503 774.361 832.058 753.664C831.613 732.967 831.39 712.827 831.39 693.243C833.949 693.132 838.4 693.076 844.743 693.076C851.085 692.965 858.207 692.909 866.107 692.909C866.107 701.032 866.051 709.989 865.94 719.781C865.94 729.573 865.829 739.588 865.606 749.825C865.495 760.062 865.328 770.077 865.106 779.869C864.994 789.549 864.772 798.507 864.438 806.741C876.01 806.741 887.249 806.63 898.154 806.407C909.058 806.073 918.628 805.684 926.862 805.239L927.363 819.927ZM981.304 793.054C978.411 793.054 975.407 793.054 972.291 793.054C969.287 792.943 966.171 792.776 962.944 792.554C960.496 801.233 958.048 810.302 955.6 819.76L935.571 818.425C941.803 797.394 948.757 776.197 956.435 754.832C964.113 733.357 972.291 712.493 980.971 692.241C985.088 691.796 989.65 691.407 994.657 691.073C999.776 690.739 1005.01 690.572 1010.35 690.572C1017.13 707.041 1024.37 726.068 1032.04 747.655C1039.72 769.242 1047.62 792.498 1055.75 817.423C1049.29 818.536 1043.17 819.37 1037.39 819.927C1031.71 820.483 1025.92 820.761 1020.03 820.761C1017.69 811.414 1015.08 801.567 1012.18 791.218C1002.28 792.442 991.987 793.054 981.304 793.054ZM987.814 710.101C985.477 716.443 982.528 725.234 978.968 736.472C975.518 747.711 971.679 760.897 967.451 776.03C971.902 776.586 976.464 776.976 981.137 777.198C985.922 777.421 991.041 777.532 996.493 777.532C998.496 777.532 1000.5 777.532 1002.5 777.532C1004.62 777.421 1006.56 777.365 1008.34 777.365C1005.9 768.463 1003.39 759.84 1000.83 751.494C998.385 743.037 996.048 735.304 993.823 728.294C991.597 721.172 989.594 715.108 987.814 710.101Z" fill="white"/>
<path d="M291.684 654.543C287.344 654.543 283.338 653.765 279.666 652.207C276.05 650.593 272.879 648.34 270.152 645.447C267.482 642.554 265.395 639.16 263.893 635.265C262.391 631.315 261.64 627.031 261.64 622.413C261.64 617.796 262.391 613.539 263.893 609.645C265.395 605.695 267.482 602.273 270.152 599.38C272.879 596.487 276.05 594.261 279.666 592.704C283.338 591.09 287.344 590.283 291.684 590.283C296.023 590.283 300.029 591.09 303.701 592.704C307.373 594.261 310.544 596.487 313.215 599.38C315.941 602.273 318.027 605.695 319.474 609.645C320.976 613.539 321.727 617.796 321.727 622.413C321.727 627.031 320.976 631.315 319.474 635.265C318.027 639.16 315.941 642.554 313.215 645.447C310.544 648.34 307.373 650.593 303.701 652.207C300.029 653.765 296.023 654.543 291.684 654.543ZM293.436 647.533C296.162 647.533 298.527 646.615 300.53 644.779C302.533 642.943 304.091 640.356 305.203 637.018C306.316 633.68 306.872 629.785 306.872 625.334C306.872 620.049 306.121 615.292 304.619 611.064C303.117 606.835 301.086 603.497 298.527 601.049C295.968 598.545 293.102 597.294 289.931 597.294C287.261 597.294 284.896 598.212 282.837 600.048C280.835 601.884 279.277 604.471 278.164 607.809C277.051 611.147 276.495 615.042 276.495 619.493C276.495 624.722 277.246 629.479 278.748 633.763C280.25 637.992 282.281 641.358 284.84 643.861C287.4 646.309 290.265 647.533 293.436 647.533ZM360.681 655.044C357.677 647.478 354.617 641.135 351.501 636.017C348.385 630.842 345.437 627.17 342.655 625.001C342.766 629.674 342.85 634.514 342.905 639.522C342.961 644.529 342.989 649.453 342.989 654.293C340.485 654.293 337.842 654.237 335.06 654.126C332.334 654.071 329.97 654.015 327.967 653.959C327.967 649.23 327.967 644.306 327.967 639.188C327.967 634.069 327.939 629.034 327.883 624.083C327.883 619.075 327.856 614.402 327.8 610.062C327.744 605.723 327.689 601.939 327.633 598.712C327.633 595.485 327.605 593.093 327.55 591.535C330.387 591.09 333.197 590.784 335.978 590.617C338.816 590.395 341.459 590.283 343.907 590.283C350.138 590.283 355.59 590.951 360.264 592.286C364.937 593.566 368.581 595.43 371.196 597.878C373.811 600.27 375.119 603.191 375.119 606.641C375.119 609.144 374.423 611.537 373.032 613.818C371.697 616.099 369.861 618.074 367.524 619.743C365.188 621.412 362.545 622.58 359.596 623.248C360.486 624.305 361.599 625.807 362.934 627.755C364.27 629.646 365.66 631.788 367.107 634.181C368.609 636.517 370.056 638.882 371.447 641.274C372.838 643.667 374.089 645.92 375.202 648.034C376.315 650.093 377.122 651.762 377.622 653.041C376.732 653.208 375.508 653.403 373.95 653.625C372.448 653.848 370.835 654.043 369.11 654.21C367.441 654.432 365.827 654.599 364.27 654.71C362.767 654.877 361.571 654.989 360.681 655.044ZM341.653 596.793C341.82 599.297 341.987 602.718 342.154 607.058C342.321 611.397 342.488 616.238 342.655 621.579C348.163 621.356 352.502 620.216 355.674 618.157C358.901 616.043 360.514 613.261 360.514 609.812C360.514 607.308 359.68 605.083 358.01 603.135C356.397 601.133 354.172 599.575 351.334 598.462C348.497 597.349 345.27 596.793 341.653 596.793ZM402.996 641.107C401.549 641.107 400.047 641.107 398.489 641.107C396.987 641.052 395.429 640.968 393.816 640.857C392.592 645.197 391.368 649.731 390.144 654.46L380.129 653.792C383.245 643.277 386.722 632.678 390.561 621.996C394.4 611.258 398.489 600.827 402.829 590.701C404.887 590.478 407.168 590.283 409.672 590.117C412.231 589.95 414.846 589.866 417.517 589.866C420.911 598.1 424.527 607.614 428.366 618.408C432.205 629.201 436.155 640.829 440.216 653.292C436.989 653.848 433.929 654.265 431.036 654.543C428.199 654.822 425.306 654.961 422.357 654.961C421.189 650.287 419.881 645.363 418.435 640.189C413.483 640.801 408.337 641.107 402.996 641.107ZM406.25 599.63C405.082 602.802 403.608 607.197 401.827 612.816C400.103 618.435 398.183 625.028 396.069 632.595C398.294 632.873 400.575 633.068 402.912 633.179C405.305 633.29 407.864 633.346 410.59 633.346C411.592 633.346 412.593 633.346 413.594 633.346C414.651 633.29 415.625 633.263 416.515 633.263C415.291 628.812 414.039 624.5 412.76 620.327C411.536 616.099 410.367 612.232 409.255 608.727C408.142 605.166 407.141 602.134 406.25 599.63ZM469.476 654.293C468.085 654.293 466.361 654.265 464.302 654.21C462.299 654.21 460.241 654.182 458.127 654.126C456.068 654.071 454.26 654.015 452.702 653.959C452.702 651.456 452.702 648.396 452.702 644.779C452.758 641.107 452.785 637.185 452.785 633.012C452.841 628.784 452.869 624.583 452.869 620.411C452.925 616.182 452.98 612.232 453.036 608.56C453.091 604.832 453.147 601.661 453.203 599.046C449.03 599.102 444.969 599.157 441.018 599.213C437.068 599.213 433.452 599.213 430.169 599.213L430.503 590.868C434.064 590.868 437.903 590.895 442.02 590.951C446.137 590.951 450.337 590.979 454.621 591.035C458.905 591.035 463.05 591.062 467.056 591.118C471.118 591.118 474.845 591.146 478.239 591.201C481.633 591.201 484.498 591.229 486.835 591.285C489.227 591.285 490.841 591.313 491.675 591.368L491.926 598.379C488.866 598.49 485.361 598.601 481.41 598.712C477.46 598.768 473.315 598.824 468.976 598.879C469.031 601.383 469.087 604.387 469.143 607.892C469.198 611.397 469.226 615.209 469.226 619.326C469.282 623.387 469.309 627.504 469.309 631.677C469.365 635.85 469.393 639.883 469.393 643.778C469.449 647.672 469.476 651.177 469.476 654.293ZM519.88 654.543C515.54 654.543 511.534 653.765 507.862 652.207C504.246 650.593 501.075 648.34 498.348 645.447C495.678 642.554 493.591 639.16 492.089 635.265C490.587 631.315 489.836 627.031 489.836 622.413C489.836 617.796 490.587 613.539 492.089 609.645C493.591 605.695 495.678 602.273 498.348 599.38C501.075 596.487 504.246 594.261 507.862 592.704C511.534 591.09 515.54 590.283 519.88 590.283C524.219 590.283 528.225 591.09 531.897 592.704C535.569 594.261 538.74 596.487 541.411 599.38C544.137 602.273 546.223 605.695 547.67 609.645C549.172 613.539 549.923 617.796 549.923 622.413C549.923 627.031 549.172 631.315 547.67 635.265C546.223 639.16 544.137 642.554 541.411 645.447C538.74 648.34 535.569 650.593 531.897 652.207C528.225 653.765 524.219 654.543 519.88 654.543ZM521.632 647.533C524.358 647.533 526.723 646.615 528.726 644.779C530.729 642.943 532.287 640.356 533.399 637.018C534.512 633.68 535.068 629.785 535.068 625.334C535.068 620.049 534.317 615.292 532.815 611.064C531.313 606.835 529.282 603.497 526.723 601.049C524.164 598.545 521.298 597.294 518.127 597.294C515.457 597.294 513.092 598.212 511.033 600.048C509.031 601.884 507.473 604.471 506.36 607.809C505.247 611.147 504.691 615.042 504.691 619.493C504.691 624.722 505.442 629.479 506.944 633.763C508.446 637.992 510.477 641.358 513.036 643.861C515.596 646.309 518.461 647.533 521.632 647.533ZM588.877 655.044C585.873 647.478 582.813 641.135 579.697 636.017C576.581 630.842 573.633 627.17 570.851 625.001C570.962 629.674 571.046 634.514 571.101 639.522C571.157 644.529 571.185 649.453 571.185 654.293C568.681 654.293 566.038 654.237 563.256 654.126C560.53 654.071 558.166 654.015 556.163 653.959C556.163 649.23 556.163 644.306 556.163 639.188C556.163 634.069 556.135 629.034 556.079 624.083C556.079 619.075 556.052 614.402 555.996 610.062C555.94 605.723 555.885 601.939 555.829 598.712C555.829 595.485 555.801 593.093 555.746 591.535C558.583 591.09 561.393 590.784 564.174 590.617C567.012 590.395 569.655 590.283 572.103 590.283C578.334 590.283 583.786 590.951 588.46 592.286C593.133 593.566 596.777 595.43 599.392 597.878C602.007 600.27 603.315 603.191 603.315 606.641C603.315 609.144 602.619 611.537 601.228 613.818C599.893 616.099 598.057 618.074 595.72 619.743C593.384 621.412 590.741 622.58 587.792 623.248C588.682 624.305 589.795 625.807 591.13 627.755C592.466 629.646 593.856 631.788 595.303 634.181C596.805 636.517 598.252 638.882 599.643 641.274C601.034 643.667 602.285 645.92 603.398 648.034C604.511 650.093 605.318 651.762 605.818 653.041C604.928 653.208 603.704 653.403 602.146 653.625C600.644 653.848 599.031 654.043 597.306 654.21C595.637 654.432 594.023 654.599 592.466 654.71C590.963 654.877 589.767 654.989 588.877 655.044ZM569.849 596.793C570.016 599.297 570.183 602.718 570.35 607.058C570.517 611.397 570.684 616.238 570.851 621.579C576.359 621.356 580.698 620.216 583.87 618.157C587.097 616.043 588.71 613.261 588.71 609.812C588.71 607.308 587.876 605.083 586.206 603.135C584.593 601.133 582.368 599.575 579.53 598.462C576.693 597.349 573.466 596.793 569.849 596.793ZM611.285 654.21C611.953 640.69 612.287 626.948 612.287 612.983C612.287 610.646 612.259 608.087 612.203 605.305C612.203 602.468 612.175 599.797 612.12 597.294C612.12 594.79 612.092 592.787 612.036 591.285C612.704 591.174 613.817 591.09 615.374 591.035C616.988 590.979 618.74 590.951 620.632 590.951C622.134 590.951 623.609 590.979 625.055 591.035C626.557 591.09 627.837 591.174 628.894 591.285C628.783 594.734 628.699 598.184 628.644 601.633C628.588 605.083 628.532 608.365 628.477 611.481C628.477 614.541 628.477 617.211 628.477 619.493C628.477 627.059 628.56 633.624 628.727 639.188C628.95 644.751 629.256 649.675 629.645 653.959C626.641 654.071 623.581 654.126 620.465 654.126C617.405 654.182 614.345 654.21 611.285 654.21ZM667.229 654.543C662.889 654.543 658.884 653.765 655.212 652.207C651.595 650.593 648.424 648.34 645.698 645.447C643.027 642.554 640.941 639.16 639.439 635.265C637.937 631.315 637.185 627.031 637.185 622.413C637.185 617.796 637.937 613.539 639.439 609.645C640.941 605.695 643.027 602.273 645.698 599.38C648.424 596.487 651.595 594.261 655.212 592.704C658.884 591.09 662.889 590.283 667.229 590.283C671.569 590.283 675.575 591.09 679.247 592.704C682.919 594.261 686.09 596.487 688.76 599.38C691.487 602.273 693.573 605.695 695.019 609.645C696.522 613.539 697.273 617.796 697.273 622.413C697.273 627.031 696.522 631.315 695.019 635.265C693.573 639.16 691.487 642.554 688.76 645.447C686.09 648.34 682.919 650.593 679.247 652.207C675.575 653.765 671.569 654.543 667.229 654.543ZM668.982 647.533C671.708 647.533 674.072 646.615 676.075 644.779C678.078 642.943 679.636 640.356 680.749 637.018C681.861 633.68 682.418 629.785 682.418 625.334C682.418 620.049 681.667 615.292 680.165 611.064C678.662 606.835 676.632 603.497 674.072 601.049C671.513 598.545 668.648 597.294 665.477 597.294C662.806 597.294 660.441 598.212 658.383 600.048C656.38 601.884 654.822 604.471 653.709 607.809C652.597 611.147 652.04 615.042 652.04 619.493C652.04 624.722 652.791 629.479 654.294 633.763C655.796 637.992 657.827 641.358 660.386 643.861C662.945 646.309 665.81 647.533 668.982 647.533ZM746.691 654.543C745.077 654.543 743.38 654.488 741.6 654.377C739.875 654.321 738.178 654.237 736.509 654.126C736.509 648.062 736.509 641.97 736.509 635.85C736.565 629.73 736.593 623.86 736.593 618.241C736.648 612.621 736.704 607.503 736.76 602.885C736.871 598.212 736.982 594.289 737.094 591.118C739.263 590.84 741.378 590.645 743.436 590.534C745.495 590.367 747.498 590.283 749.445 590.283C762.241 590.283 771.894 592.926 778.404 598.212C784.969 603.441 788.251 611.175 788.251 621.412C788.251 632.205 784.663 640.44 777.486 646.115C770.364 651.734 760.099 654.543 746.691 654.543ZM751.281 647.617C756.566 647.617 760.822 646.866 764.049 645.363C767.332 643.806 769.724 641.358 771.226 638.019C772.729 634.681 773.48 630.258 773.48 624.75C773.48 616.015 771.699 609.395 768.139 604.888C764.634 600.381 759.181 597.767 751.782 597.043C751.726 598.545 751.67 600.827 751.615 603.887C751.559 606.891 751.503 610.34 751.448 614.235C751.448 618.074 751.42 622.052 751.364 626.169C751.364 630.286 751.336 634.236 751.281 638.019C751.281 641.747 751.281 644.946 751.281 647.617ZM795.798 654.21C796.466 640.69 796.799 626.948 796.799 612.983C796.799 610.646 796.772 608.087 796.716 605.305C796.716 602.468 796.688 599.797 796.633 597.294C796.633 594.79 796.605 592.787 796.549 591.285C797.217 591.174 798.329 591.09 799.887 591.035C801.501 590.979 803.253 590.951 805.145 590.951C806.647 590.951 808.121 590.979 809.568 591.035C811.07 591.09 812.35 591.174 813.407 591.285C813.296 594.734 813.212 598.184 813.157 601.633C813.101 605.083 813.045 608.365 812.99 611.481C812.99 614.541 812.99 617.211 812.99 619.493C812.99 627.059 813.073 633.624 813.24 639.188C813.463 644.751 813.769 649.675 814.158 653.959C811.154 654.071 808.094 654.126 804.978 654.126C801.918 654.182 798.858 654.21 795.798 654.21Z" fill="white"/>
<mask id="mask0_14_182" style="mask-type:luminance" maskUnits="userSpaceOnUse" x="490" y="0" width="356" height="316">
<path d="M490.837 0H845.331V315.856H490.837V0Z" fill="white"/>
</mask>
<g mask="url(#mask0_14_182)">
<path d="M837.945 223.331C746.056 186.523 659.74 156.559 572.856 147.519C581.555 145.401 590.041 142.482 598.03 138.53C644.401 115.566 656.438 69.6135 624.873 35.8529C601.936 11.3139 562.24 0.0517442 524.461 4.54626C487.429 64.2924 490.944 120.009 509.016 175.08C525.988 226.844 558.228 275.328 617.807 315.263C674.795 244.564 749.5 208.246 837.945 223.331Z" fill="white"/>
</g>
<mask id="mask1_14_182" style="mask-type:luminance" maskUnits="userSpaceOnUse" x="236" y="0" width="383" height="435">
<path d="M236.329 0H618.091V434.884H236.329V0Z" fill="white"/>
</mask>
<g mask="url(#mask1_14_182)">
<path d="M524.461 4.5462C510.294 6.22519 496.376 10.0481 483.736 16.2991C437.329 39.2625 425.328 85.241 456.858 118.976C468.113 130.987 483.381 139.769 500.424 145.168C418.546 148.578 334.681 173.711 243.785 232.243C243.785 232.243 410.913 168.596 508.874 418.481C515.656 435.788 549.209 436.15 556.665 418.946C573.85 379.348 594.302 344.399 617.807 315.262C514.768 232.165 477.274 113.835 524.461 4.5462Z" fill="white"/>
</g>
<path d="M970.525 388.673C1011.04 400.787 1057.41 386.684 1074.03 357.211C1090.68 327.713 1071.33 294.004 1030.78 281.889C990.267 269.8 943.896 283.878 927.243 313.351C921.349 323.864 920.071 334.868 922.557 345.277C884.245 307.952 825.66 278.996 734.125 261.121C734.125 261.121 818.452 295.037 754.577 389.499C786.461 409.441 819.127 419.23 853.319 424.448C892.057 430.338 924.545 428.529 972.017 420.548C966.442 406.625 959.838 393.245 951.636 380.614C957.282 383.842 963.566 386.606 970.525 388.673Z" fill="white"/>
<mask id="mask2_14_182" style="mask-type:luminance" maskUnits="userSpaceOnUse" x="681" y="388" width="319" height="153">
<path d="M681.718 388.595H999.853V540.583H681.718V388.595Z" fill="white"/>
</mask>
<g mask="url(#mask2_14_182)">
<path d="M754.576 389.5C741.119 409.389 721.094 431.965 692.298 457.486C676.995 471.073 694.606 490.936 717.934 486.519C857.011 460.12 964.453 473.087 997.829 538.904C993.071 496.128 986.289 456.349 972.016 420.548C899.264 423.828 824.559 413.961 754.576 389.5Z" fill="white"/>
</g>
<mask id="mask3_14_182" style="mask-type:luminance" maskUnits="userSpaceOnUse" x="0" y="256" width="400" height="285">
<path d="M0 256.343H399.942V540.583H0V256.343Z" fill="white"/>
</mask>
<g mask="url(#mask3_14_182)">
<path d="M347.641 261.121C256.07 278.996 197.485 307.952 159.174 345.277C161.695 334.868 160.417 323.864 154.487 313.351C137.835 283.878 91.4994 269.8 50.9513 281.889C10.4388 294.004 -8.94762 327.713 7.70477 357.211C24.3572 386.684 70.6927 400.787 111.241 388.673C118.2 386.606 124.485 383.843 130.095 380.614C100.802 425.688 90.5052 479.493 83.901 538.904C117.277 473.087 224.719 460.12 363.796 486.519C387.159 490.962 404.735 471.047 389.396 457.46C224.008 310.819 347.641 261.121 347.641 261.121Z" fill="white"/>
</g>
</svg>
