<svg width="2160" height="1080" viewBox="0 0 2160 1080" fill="none" xmlns="http://www.w3.org/2000/svg">
<rect width="2160" height="1080" fill="white"/>
<path d="M1119.83 646.176C1117.57 646.176 1114.76 646.131 1111.41 646.04C1108.15 646.04 1104.81 645.995 1101.37 645.904C1098.02 645.814 1095.08 645.723 1092.54 645.633C1092.54 641.56 1092.54 636.583 1092.54 630.7C1092.63 624.727 1092.68 618.347 1092.68 611.559C1092.77 604.681 1092.81 597.849 1092.81 591.061C1092.91 584.183 1093 577.758 1093.09 571.784C1093.18 565.721 1093.27 560.562 1093.36 556.309C1086.57 556.399 1079.96 556.49 1073.54 556.58C1067.11 556.58 1061.23 556.58 1055.89 556.58L1056.43 543.005C1062.23 543.005 1068.47 543.051 1075.17 543.141C1081.86 543.141 1088.7 543.186 1095.67 543.277C1102.63 543.277 1109.38 543.322 1115.89 543.413C1122.5 543.413 1128.56 543.458 1134.08 543.548C1139.6 543.548 1144.26 543.594 1148.07 543.684C1151.96 543.684 1154.58 543.729 1155.94 543.82L1156.35 555.223C1151.37 555.404 1145.67 555.585 1139.24 555.766C1132.82 555.856 1126.07 555.947 1119.01 556.037C1119.11 560.11 1119.2 564.997 1119.29 570.698C1119.38 576.4 1119.42 582.599 1119.42 589.296C1119.51 595.903 1119.56 602.6 1119.56 609.387C1119.65 616.175 1119.69 622.736 1119.69 629.071C1119.78 635.406 1119.83 641.108 1119.83 646.176ZM1177.14 624.727C1174.78 624.727 1172.34 624.727 1169.8 624.727C1167.36 624.637 1164.83 624.501 1162.2 624.32C1160.21 631.379 1158.22 638.755 1156.23 646.447L1139.94 645.361C1145.01 628.257 1150.66 611.016 1156.91 593.64C1163.15 576.174 1169.8 559.205 1176.86 542.734C1180.21 542.372 1183.92 542.055 1188 541.784C1192.16 541.512 1196.41 541.376 1200.76 541.376C1206.28 554.77 1212.16 570.246 1218.4 587.803C1224.65 605.36 1231.07 624.275 1237.68 644.547C1232.43 645.452 1227.45 646.131 1222.75 646.583C1218.13 647.036 1213.43 647.262 1208.63 647.262C1206.73 639.66 1204.6 631.65 1202.25 623.234C1194.19 624.229 1185.82 624.727 1177.14 624.727ZM1182.43 557.259C1180.53 562.418 1178.13 569.567 1175.23 578.708C1172.43 587.848 1169.31 598.573 1165.87 610.881C1169.49 611.333 1173.2 611.65 1177 611.831C1180.89 612.012 1185.05 612.102 1189.49 612.102C1191.12 612.102 1192.75 612.102 1194.38 612.102C1196.09 612.012 1197.68 611.967 1199.13 611.967C1197.14 604.727 1195.1 597.713 1193.02 590.925C1191.03 584.047 1189.13 577.758 1187.32 572.056C1185.51 566.264 1183.88 561.332 1182.43 557.259ZM1262.37 647.262C1256.67 633.234 1250.65 617.397 1244.32 599.749C1238.07 582.011 1231.78 563.458 1225.45 544.091C1230.97 543.096 1236.03 542.417 1240.65 542.055C1245.36 541.603 1249.97 541.376 1254.5 541.376C1256.58 549.521 1258.75 557.893 1261.01 566.49C1263.37 575.088 1265.72 583.459 1268.07 591.604C1270.52 599.749 1272.82 607.261 1275 614.139C1277.17 621.017 1279.07 626.763 1280.7 631.379C1282.69 625.949 1285.09 618.664 1287.89 609.523C1290.7 600.383 1293.73 590.02 1296.99 578.436C1300.24 566.852 1303.55 554.68 1306.9 541.919L1323.19 543.005C1318.21 560.291 1312.55 577.712 1306.22 595.269C1299.97 612.736 1293.32 629.614 1286.26 645.904L1262.37 647.262ZM1404.29 646.583C1401.13 646.312 1396.06 646.085 1389.09 645.904C1382.21 645.633 1373.93 645.452 1364.25 645.361C1354.65 645.271 1344.2 645.226 1332.89 645.226C1332.71 642.692 1332.48 638.845 1332.21 633.687C1332.03 628.438 1331.8 622.465 1331.53 615.768C1331.26 609.071 1330.99 602.102 1330.72 594.862C1330.45 587.622 1330.22 580.654 1330.04 573.956C1329.86 567.169 1329.68 561.151 1329.49 555.902C1329.4 550.653 1329.36 546.716 1329.36 544.091C1333.34 544.091 1337.91 544.091 1343.07 544.091C1348.32 544.001 1353.79 543.91 1359.5 543.82C1365.2 543.729 1370.85 543.639 1376.46 543.548C1382.08 543.367 1387.28 543.232 1392.08 543.141C1396.96 542.96 1401.08 542.824 1404.43 542.734L1404.97 557.259L1356.51 555.63C1356.51 560.97 1356.51 566.4 1356.51 571.92C1356.51 577.35 1356.55 582.69 1356.65 587.939L1402.26 586.446L1401.71 601.378L1356.78 599.478C1356.87 605.903 1356.96 612.012 1357.05 617.804C1357.14 623.596 1357.28 628.845 1357.46 633.551L1404.84 631.922L1404.29 646.583ZM1469.69 647.398C1464.8 635.09 1459.82 624.772 1454.75 616.446C1449.69 608.03 1444.89 602.057 1440.36 598.527C1440.55 606.129 1440.68 614.003 1440.77 622.148C1440.86 630.293 1440.91 638.302 1440.91 646.176C1436.84 646.176 1432.54 646.085 1428.01 645.904C1423.58 645.814 1419.73 645.723 1416.47 645.633C1416.47 637.94 1416.47 629.931 1416.47 621.605C1416.47 613.279 1416.43 605.089 1416.34 597.034C1416.34 588.889 1416.29 581.287 1416.2 574.228C1416.11 567.169 1416.02 561.015 1415.93 555.766C1415.93 550.517 1415.88 546.625 1415.79 544.091C1420.41 543.367 1424.98 542.87 1429.5 542.598C1434.12 542.236 1438.42 542.055 1442.4 542.055C1452.54 542.055 1461.41 543.141 1469.01 545.313C1476.61 547.395 1482.54 550.426 1486.79 554.408C1491.05 558.3 1493.17 563.051 1493.17 568.662C1493.17 572.735 1492.04 576.626 1489.78 580.337C1487.61 584.047 1484.62 587.26 1480.82 589.975C1477.02 592.69 1472.72 594.591 1467.92 595.677C1469.37 597.396 1471.18 599.84 1473.35 603.007C1475.52 606.084 1477.79 609.568 1480.14 613.46C1482.58 617.261 1484.94 621.107 1487.2 624.999C1489.46 628.89 1491.5 632.555 1493.31 635.995C1495.12 639.343 1496.43 642.058 1497.24 644.14C1495.8 644.411 1493.81 644.728 1491.27 645.09C1488.83 645.452 1486.2 645.769 1483.4 646.04C1480.68 646.402 1478.06 646.674 1475.52 646.855C1473.08 647.126 1471.14 647.307 1469.69 647.398ZM1438.74 552.644C1439.01 556.716 1439.28 562.282 1439.55 569.341C1439.82 576.4 1440.09 584.274 1440.36 592.962C1449.32 592.6 1456.38 590.744 1461.54 587.396C1466.79 583.957 1469.42 579.432 1469.42 573.821C1469.42 569.748 1468.06 566.128 1465.34 562.961C1462.72 559.703 1459.1 557.169 1454.48 555.359C1449.87 553.549 1444.62 552.644 1438.74 552.644ZM1506.07 645.497C1506.07 641.425 1506.12 636.492 1506.21 630.7C1506.3 624.818 1506.39 618.528 1506.48 611.831C1506.66 605.043 1506.84 598.211 1507.02 591.333C1507.2 584.364 1507.39 577.758 1507.57 571.513C1507.84 565.178 1508.06 559.612 1508.25 554.816C1508.43 549.929 1508.61 546.218 1508.79 543.684C1511.14 543.503 1514.44 543.367 1518.7 543.277C1523.04 543.186 1528.43 543.141 1534.85 543.141C1542.27 554.092 1550.01 565.766 1558.07 578.165C1566.21 590.473 1574.49 603.641 1582.91 617.668L1579.92 543.005C1582.27 543.005 1584.81 543.096 1587.52 543.277C1590.33 543.367 1593.04 543.503 1595.67 543.684C1595.67 551.286 1595.62 559.431 1595.53 568.119C1595.44 576.717 1595.35 585.269 1595.26 593.776C1595.17 602.283 1595.04 610.202 1594.85 617.532C1594.67 624.772 1594.49 630.881 1594.31 635.859C1594.22 640.836 1594.09 644.094 1593.9 645.633C1592 645.723 1589.42 645.814 1586.17 645.904C1583 645.995 1579.79 646.04 1576.53 646.04C1573.27 646.131 1570.6 646.176 1568.52 646.176C1561.37 634.501 1553.41 622.193 1544.63 609.252C1535.94 596.31 1527.16 583.459 1518.29 570.698L1521.82 646.312C1516.75 646.312 1511.5 646.04 1506.07 645.497ZM1654.01 646.583C1646.95 646.583 1640.43 645.316 1634.46 642.782C1628.58 640.158 1623.42 636.492 1618.99 631.786C1614.64 627.08 1611.25 621.56 1608.8 615.225C1606.36 608.799 1605.14 601.831 1605.14 594.319C1605.14 586.808 1606.36 579.884 1608.8 573.549C1611.25 567.124 1614.64 561.558 1618.99 556.852C1623.42 552.146 1628.58 548.526 1634.46 545.992C1640.43 543.367 1646.95 542.055 1654.01 542.055C1661.07 542.055 1667.58 543.367 1673.56 545.992C1679.53 548.526 1684.69 552.146 1689.03 556.852C1693.47 561.558 1696.86 567.124 1699.21 573.549C1701.66 579.884 1702.88 586.808 1702.88 594.319C1702.88 601.831 1701.66 608.799 1699.21 615.225C1696.86 621.56 1693.47 627.08 1689.03 631.786C1684.69 636.492 1679.53 640.158 1673.56 642.782C1667.58 645.316 1661.07 646.583 1654.01 646.583ZM1656.86 635.18C1661.3 635.18 1665.14 633.687 1668.4 630.7C1671.66 627.714 1674.19 623.505 1676 618.075C1677.81 612.645 1678.72 606.31 1678.72 599.07C1678.72 590.473 1677.49 582.735 1675.05 575.857C1672.61 568.979 1669.3 563.549 1665.14 559.567C1660.98 555.494 1656.32 553.458 1651.16 553.458C1646.82 553.458 1642.97 554.951 1639.62 557.938C1636.36 560.924 1633.83 565.133 1632.02 570.563C1630.21 575.993 1629.3 582.328 1629.3 589.568C1629.3 598.075 1630.52 605.813 1632.97 612.781C1635.41 619.659 1638.72 625.134 1642.88 629.207C1647.04 633.189 1651.7 635.18 1656.86 635.18ZM1790.41 646.583C1788.33 646.493 1784.89 646.402 1780.09 646.312C1775.29 646.221 1769.46 646.131 1762.58 646.04C1755.79 646.04 1748.28 645.995 1740.04 645.904C1731.9 645.904 1723.44 645.904 1714.66 645.904C1713.84 627.261 1713.26 609.523 1712.89 592.69C1712.53 575.857 1712.35 559.476 1712.35 543.548C1714.43 543.458 1718.05 543.413 1723.21 543.413C1728.37 543.322 1734.16 543.277 1740.59 543.277C1740.59 549.883 1740.54 557.169 1740.45 565.133C1740.45 573.097 1740.36 581.242 1740.18 589.568C1740.09 597.894 1739.95 606.039 1739.77 614.003C1739.68 621.876 1739.5 629.162 1739.23 635.859C1748.64 635.859 1757.78 635.768 1766.65 635.587C1775.52 635.316 1783.3 634.999 1790 634.637L1790.41 646.583ZM1834.28 624.727C1831.93 624.727 1829.48 624.727 1826.95 624.727C1824.51 624.637 1821.97 624.501 1819.35 624.32C1817.36 631.379 1815.36 638.755 1813.37 646.447L1797.08 645.361C1802.15 628.257 1807.81 611.016 1814.05 593.64C1820.3 576.174 1826.95 559.205 1834.01 542.734C1837.36 542.372 1841.07 542.055 1845.14 541.784C1849.3 541.512 1853.56 541.376 1857.9 541.376C1863.42 554.77 1869.3 570.246 1875.55 587.803C1881.79 605.36 1888.22 624.275 1894.82 644.547C1889.57 645.452 1884.6 646.131 1879.89 646.583C1875.28 647.036 1870.57 647.262 1865.77 647.262C1863.87 639.66 1861.75 631.65 1859.39 623.234C1851.34 624.229 1842.97 624.727 1834.28 624.727ZM1839.57 557.259C1837.67 562.418 1835.27 569.567 1832.38 578.708C1829.57 587.848 1826.45 598.573 1823.01 610.881C1826.63 611.333 1830.34 611.65 1834.14 611.831C1838.03 612.012 1842.2 612.102 1846.63 612.102C1848.26 612.102 1849.89 612.102 1851.52 612.102C1853.24 612.012 1854.82 611.967 1856.27 611.967C1854.28 604.727 1852.24 597.713 1850.16 590.925C1848.17 584.047 1846.27 577.758 1844.46 572.056C1842.65 566.264 1841.02 561.332 1839.57 557.259Z" fill="url(#paint0_linear_9_166)"/>
<path d="M1273.4 506.54C1269.87 506.54 1266.61 505.907 1263.62 504.64C1260.68 503.327 1258.1 501.495 1255.88 499.142C1253.71 496.789 1252.02 494.028 1250.79 490.861C1249.57 487.648 1248.96 484.164 1248.96 480.408C1248.96 476.652 1249.57 473.191 1250.79 470.023C1252.02 466.81 1253.71 464.028 1255.88 461.674C1258.1 459.321 1260.68 457.511 1263.62 456.244C1266.61 454.932 1269.87 454.276 1273.4 454.276C1276.93 454.276 1280.18 454.932 1283.17 456.244C1286.16 457.511 1288.74 459.321 1290.91 461.674C1293.13 464.028 1294.82 466.81 1296 470.023C1297.22 473.191 1297.83 476.652 1297.83 480.408C1297.83 484.164 1297.22 487.648 1296 490.861C1294.82 494.028 1293.13 496.789 1290.91 499.142C1288.74 501.495 1286.16 503.327 1283.17 504.64C1280.18 505.907 1276.93 506.54 1273.4 506.54ZM1274.82 500.839C1277.04 500.839 1278.96 500.092 1280.59 498.599C1282.22 497.105 1283.49 495.001 1284.39 492.286C1285.3 489.571 1285.75 486.404 1285.75 482.784C1285.75 478.485 1285.14 474.616 1283.92 471.177C1282.7 467.738 1281.04 465.023 1278.96 463.032C1276.88 460.996 1274.55 459.978 1271.97 459.978C1269.8 459.978 1267.88 460.724 1266.2 462.217C1264.57 463.711 1263.31 465.815 1262.4 468.53C1261.5 471.245 1261.04 474.412 1261.04 478.032C1261.04 482.286 1261.65 486.155 1262.88 489.639C1264.1 493.078 1265.75 495.816 1267.83 497.852C1269.91 499.843 1272.24 500.839 1274.82 500.839ZM1329.51 506.947C1327.07 500.793 1324.58 495.635 1322.05 491.472C1319.51 487.263 1317.11 484.277 1314.85 482.512C1314.94 486.313 1315.01 490.25 1315.06 494.323C1315.1 498.395 1315.12 502.4 1315.12 506.336C1313.09 506.336 1310.94 506.291 1308.68 506.201C1306.46 506.155 1304.54 506.11 1302.91 506.065C1302.91 502.219 1302.91 498.214 1302.91 494.051C1302.91 489.888 1302.88 485.793 1302.84 481.766C1302.84 477.693 1302.82 473.892 1302.77 470.363C1302.73 466.833 1302.68 463.756 1302.63 461.131C1302.63 458.507 1302.61 456.561 1302.57 455.294C1304.87 454.932 1307.16 454.683 1309.42 454.548C1311.73 454.367 1313.88 454.276 1315.87 454.276C1320.94 454.276 1325.37 454.819 1329.17 455.905C1332.98 456.946 1335.94 458.462 1338.07 460.453C1340.19 462.398 1341.26 464.774 1341.26 467.58C1341.26 469.616 1340.69 471.562 1339.56 473.417C1338.47 475.272 1336.98 476.879 1335.08 478.236C1333.18 479.594 1331.03 480.544 1328.63 481.087C1329.36 481.947 1330.26 483.168 1331.35 484.752C1332.43 486.291 1333.56 488.033 1334.74 489.978C1335.96 491.879 1337.14 493.802 1338.27 495.748C1339.4 497.694 1340.42 499.526 1341.32 501.246C1342.23 502.92 1342.88 504.278 1343.29 505.318C1342.57 505.454 1341.57 505.612 1340.31 505.793C1339.08 505.974 1337.77 506.133 1336.37 506.269C1335.01 506.45 1333.7 506.585 1332.43 506.676C1331.21 506.812 1330.24 506.902 1329.51 506.947ZM1314.04 459.57C1314.17 461.607 1314.31 464.39 1314.45 467.919C1314.58 471.449 1314.72 475.385 1314.85 479.729C1319.33 479.548 1322.86 478.621 1325.44 476.946C1328.07 475.227 1329.38 472.964 1329.38 470.159C1329.38 468.123 1328.7 466.313 1327.34 464.729C1326.03 463.1 1324.22 461.833 1321.91 460.928C1319.6 460.023 1316.98 459.57 1314.04 459.57ZM1363.93 495.612C1362.75 495.612 1361.53 495.612 1360.26 495.612C1359.04 495.567 1357.77 495.499 1356.46 495.409C1355.47 498.938 1354.47 502.626 1353.48 506.472L1345.33 505.929C1347.87 497.377 1350.69 488.757 1353.82 480.069C1356.94 471.335 1360.26 462.851 1363.79 454.615C1365.47 454.434 1367.32 454.276 1369.36 454.14C1371.44 454.005 1373.57 453.937 1375.74 453.937C1378.5 460.634 1381.44 468.372 1384.56 477.15C1387.69 485.929 1390.9 495.386 1394.2 505.522C1391.58 505.974 1389.09 506.314 1386.73 506.54C1384.43 506.766 1382.07 506.879 1379.68 506.879C1378.73 503.078 1377.66 499.074 1376.49 494.866C1372.46 495.363 1368.27 495.612 1363.93 495.612ZM1366.58 461.878C1365.63 464.457 1364.43 468.032 1362.98 472.602C1361.58 477.173 1360.01 482.535 1358.3 488.689C1360.11 488.915 1361.96 489.073 1363.86 489.164C1365.81 489.254 1367.89 489.3 1370.11 489.3C1370.92 489.3 1371.73 489.3 1372.55 489.3C1373.41 489.254 1374.2 489.232 1374.92 489.232C1373.93 485.612 1372.91 482.105 1371.87 478.711C1370.87 475.272 1369.92 472.127 1369.02 469.277C1368.11 466.381 1367.3 463.914 1366.58 461.878ZM1418 506.336C1416.87 506.336 1415.46 506.314 1413.79 506.269C1412.16 506.269 1410.49 506.246 1408.77 506.201C1407.09 506.155 1405.62 506.11 1404.36 506.065C1404.36 504.029 1404.36 501.54 1404.36 498.599C1404.4 495.612 1404.42 492.422 1404.42 489.028C1404.47 485.589 1404.49 482.173 1404.49 478.779C1404.54 475.34 1404.58 472.127 1404.63 469.141C1404.67 466.109 1404.72 463.53 1404.76 461.403C1401.37 461.448 1398.07 461.493 1394.85 461.539C1391.64 461.539 1388.7 461.539 1386.03 461.539L1386.3 454.751C1389.2 454.751 1392.32 454.774 1395.67 454.819C1399.02 454.819 1402.43 454.842 1405.92 454.887C1409.4 454.887 1412.77 454.91 1416.03 454.955C1419.33 454.955 1422.37 454.977 1425.13 455.023C1427.89 455.023 1430.22 455.045 1432.12 455.091C1434.06 455.091 1435.38 455.113 1436.05 455.158L1436.26 460.86C1433.77 460.95 1430.92 461.041 1427.71 461.131C1424.49 461.177 1421.12 461.222 1417.59 461.267C1417.64 463.303 1417.68 465.747 1417.73 468.598C1417.77 471.449 1417.8 474.548 1417.8 477.897C1417.84 481.2 1417.86 484.548 1417.86 487.942C1417.91 491.336 1417.93 494.617 1417.93 497.784C1417.98 500.952 1418 503.802 1418 506.336ZM1458.99 506.54C1455.46 506.54 1452.21 505.907 1449.22 504.64C1446.28 503.327 1443.7 501.495 1441.48 499.142C1439.31 496.789 1437.61 494.028 1436.39 490.861C1435.17 487.648 1434.56 484.164 1434.56 480.408C1434.56 476.652 1435.17 473.191 1436.39 470.023C1437.61 466.81 1439.31 464.028 1441.48 461.674C1443.7 459.321 1446.28 457.511 1449.22 456.244C1452.21 454.932 1455.46 454.276 1458.99 454.276C1462.52 454.276 1465.78 454.932 1468.77 456.244C1471.75 457.511 1474.33 459.321 1476.5 461.674C1478.72 464.028 1480.42 466.81 1481.6 470.023C1482.82 473.191 1483.43 476.652 1483.43 480.408C1483.43 484.164 1482.82 487.648 1481.6 490.861C1480.42 494.028 1478.72 496.789 1476.5 499.142C1474.33 501.495 1471.75 503.327 1468.77 504.64C1465.78 505.907 1462.52 506.54 1458.99 506.54ZM1460.42 500.839C1462.64 500.839 1464.56 500.092 1466.19 498.599C1467.82 497.105 1469.08 495.001 1469.99 492.286C1470.89 489.571 1471.35 486.404 1471.35 482.784C1471.35 478.485 1470.74 474.616 1469.51 471.177C1468.29 467.738 1466.64 465.023 1464.56 463.032C1462.48 460.996 1460.15 459.978 1457.57 459.978C1455.4 459.978 1453.47 460.724 1451.8 462.217C1450.17 463.711 1448.9 465.815 1448 468.53C1447.09 471.245 1446.64 474.412 1446.64 478.032C1446.64 482.286 1447.25 486.155 1448.47 489.639C1449.69 493.078 1451.35 495.816 1453.43 497.852C1455.51 499.843 1457.84 500.839 1460.42 500.839ZM1515.11 506.947C1512.67 500.793 1510.18 495.635 1507.64 491.472C1505.11 487.263 1502.71 484.277 1500.45 482.512C1500.54 486.313 1500.61 490.25 1500.65 494.323C1500.7 498.395 1500.72 502.4 1500.72 506.336C1498.68 506.336 1496.53 506.291 1494.27 506.201C1492.05 506.155 1490.13 506.11 1488.5 506.065C1488.5 502.219 1488.5 498.214 1488.5 494.051C1488.5 489.888 1488.48 485.793 1488.43 481.766C1488.43 477.693 1488.41 473.892 1488.37 470.363C1488.32 466.833 1488.28 463.756 1488.23 461.131C1488.23 458.507 1488.21 456.561 1488.16 455.294C1490.47 454.932 1492.76 454.683 1495.02 454.548C1497.33 454.367 1499.48 454.276 1501.47 454.276C1506.54 454.276 1510.97 454.819 1514.77 455.905C1518.57 456.946 1521.54 458.462 1523.66 460.453C1525.79 462.398 1526.85 464.774 1526.85 467.58C1526.85 469.616 1526.29 471.562 1525.16 473.417C1524.07 475.272 1522.58 476.879 1520.68 478.236C1518.78 479.594 1516.63 480.544 1514.23 481.087C1514.95 481.947 1515.86 483.168 1516.94 484.752C1518.03 486.291 1519.16 488.033 1520.34 489.978C1521.56 491.879 1522.73 493.802 1523.87 495.748C1525 497.694 1526.02 499.526 1526.92 501.246C1527.83 502.92 1528.48 504.278 1528.89 505.318C1528.16 505.454 1527.17 505.612 1525.9 505.793C1524.68 505.974 1523.37 506.133 1521.97 506.269C1520.61 506.45 1519.3 506.585 1518.03 506.676C1516.81 506.812 1515.83 506.902 1515.11 506.947ZM1499.63 459.57C1499.77 461.607 1499.91 464.39 1500.04 467.919C1500.18 471.449 1500.31 475.385 1500.45 479.729C1504.93 479.548 1508.46 478.621 1511.04 476.946C1513.66 475.227 1514.97 472.964 1514.97 470.159C1514.97 468.123 1514.3 466.313 1512.94 464.729C1511.63 463.1 1509.82 461.833 1507.51 460.928C1505.2 460.023 1502.58 459.57 1499.63 459.57ZM1533.34 506.269C1533.88 495.273 1534.15 484.096 1534.15 472.738C1534.15 470.838 1534.13 468.756 1534.08 466.494C1534.08 464.186 1534.06 462.014 1534.01 459.978C1534.01 457.941 1533.99 456.312 1533.95 455.091C1534.49 455 1535.39 454.932 1536.66 454.887C1537.97 454.842 1539.4 454.819 1540.94 454.819C1542.16 454.819 1543.36 454.842 1544.53 454.887C1545.76 454.932 1546.8 455 1547.66 455.091C1547.57 457.896 1547.5 460.702 1547.45 463.507C1547.41 466.313 1547.36 468.982 1547.32 471.516C1547.32 474.005 1547.32 476.177 1547.32 478.032C1547.32 484.186 1547.39 489.526 1547.52 494.051C1547.7 498.576 1547.95 502.581 1548.27 506.065C1545.82 506.155 1543.34 506.201 1540.8 506.201C1538.31 506.246 1535.82 506.269 1533.34 506.269ZM1578.84 506.54C1575.31 506.54 1572.05 505.907 1569.06 504.64C1566.12 503.327 1563.54 501.495 1561.32 499.142C1559.15 496.789 1557.45 494.028 1556.23 490.861C1555.01 487.648 1554.4 484.164 1554.4 480.408C1554.4 476.652 1555.01 473.191 1556.23 470.023C1557.45 466.81 1559.15 464.028 1561.32 461.674C1563.54 459.321 1566.12 457.511 1569.06 456.244C1572.05 454.932 1575.31 454.276 1578.84 454.276C1582.36 454.276 1585.62 454.932 1588.61 456.244C1591.6 457.511 1594.18 459.321 1596.35 461.674C1598.56 464.028 1600.26 466.81 1601.44 470.023C1602.66 473.191 1603.27 476.652 1603.27 480.408C1603.27 484.164 1602.66 487.648 1601.44 490.861C1600.26 494.028 1598.56 496.789 1596.35 499.142C1594.18 501.495 1591.6 503.327 1588.61 504.64C1585.62 505.907 1582.36 506.54 1578.84 506.54ZM1580.26 500.839C1582.48 500.839 1584.4 500.092 1586.03 498.599C1587.66 497.105 1588.93 495.001 1589.83 492.286C1590.74 489.571 1591.19 486.404 1591.19 482.784C1591.19 478.485 1590.58 474.616 1589.36 471.177C1588.13 467.738 1586.48 465.023 1584.4 463.032C1582.32 460.996 1579.99 459.978 1577.41 459.978C1575.24 459.978 1573.31 460.724 1571.64 462.217C1570.01 463.711 1568.74 465.815 1567.84 468.53C1566.93 471.245 1566.48 474.412 1566.48 478.032C1566.48 482.286 1567.09 486.155 1568.31 489.639C1569.54 493.078 1571.19 495.816 1573.27 497.852C1575.35 499.843 1577.68 500.839 1580.26 500.839ZM1643.46 506.54C1642.15 506.54 1640.77 506.495 1639.32 506.404C1637.92 506.359 1636.54 506.291 1635.18 506.201C1635.18 501.268 1635.18 496.314 1635.18 491.336C1635.23 486.358 1635.25 481.585 1635.25 477.014C1635.3 472.444 1635.34 468.281 1635.39 464.525C1635.48 460.724 1635.57 457.534 1635.66 454.955C1637.42 454.729 1639.14 454.57 1640.82 454.48C1642.49 454.344 1644.12 454.276 1645.7 454.276C1656.11 454.276 1663.96 456.425 1669.26 460.724C1674.6 464.978 1677.27 471.268 1677.27 479.594C1677.27 488.372 1674.35 495.069 1668.51 499.685C1662.72 504.255 1654.37 506.54 1643.46 506.54ZM1647.2 500.906C1651.5 500.906 1654.96 500.296 1657.58 499.074C1660.25 497.807 1662.2 495.816 1663.42 493.101C1664.64 490.386 1665.25 486.788 1665.25 482.309C1665.25 475.204 1663.8 469.82 1660.91 466.154C1658.06 462.489 1653.62 460.362 1647.6 459.774C1647.56 460.996 1647.51 462.851 1647.47 465.34C1647.42 467.783 1647.38 470.589 1647.33 473.756C1647.33 476.879 1647.31 480.114 1647.26 483.462C1647.26 486.811 1647.24 490.024 1647.2 493.101C1647.2 496.133 1647.2 498.734 1647.2 500.906ZM1683.4 506.269C1683.95 495.273 1684.22 484.096 1684.22 472.738C1684.22 470.838 1684.19 468.756 1684.15 466.494C1684.15 464.186 1684.13 462.014 1684.08 459.978C1684.08 457.941 1684.06 456.312 1684.01 455.091C1684.56 455 1685.46 454.932 1686.73 454.887C1688.04 454.842 1689.47 454.819 1691.01 454.819C1692.23 454.819 1693.43 454.842 1694.6 454.887C1695.82 454.932 1696.86 455 1697.72 455.091C1697.63 457.896 1697.57 460.702 1697.52 463.507C1697.48 466.313 1697.43 468.982 1697.39 471.516C1697.39 474.005 1697.39 476.177 1697.39 478.032C1697.39 484.186 1697.45 489.526 1697.59 494.051C1697.77 498.576 1698.02 502.581 1698.34 506.065C1695.89 506.155 1693.4 506.201 1690.87 506.201C1688.38 506.246 1685.89 506.269 1683.4 506.269Z" fill="url(#paint1_linear_9_166)"/>
<mask id="mask0_9_166" style="mask-type:luminance" maskUnits="userSpaceOnUse" x="533" y="366" width="229" height="205">
<path d="M533.63 366.807H761.585V570.139H533.63V366.807Z" fill="white"/>
</mask>
<g mask="url(#mask0_9_166)">
<path d="M756.835 510.576C697.746 486.88 642.242 467.591 586.372 461.771C591.965 460.408 597.422 458.529 602.559 455.985C632.378 441.202 640.118 411.62 619.82 389.887C605.071 374.09 579.545 366.84 555.252 369.733C531.438 408.195 533.698 444.062 545.32 479.514C556.233 512.837 576.965 544.049 615.277 569.756C651.922 524.244 699.961 500.865 756.835 510.576Z" fill="#854FDC" fill-opacity="0.9"/>
</g>
<mask id="mask1_9_166" style="mask-type:luminance" maskUnits="userSpaceOnUse" x="369" y="366" width="247" height="281">
<path d="M369.97 366.807H615.46V646.763H369.97V366.807Z" fill="white"/>
</mask>
<g mask="url(#mask1_9_166)">
<path d="M555.252 369.733C546.142 370.814 537.191 373.275 529.063 377.299C499.222 392.082 491.505 421.68 511.779 443.397C519.017 451.129 528.835 456.783 539.794 460.258C487.144 462.453 433.214 478.633 374.764 516.313C374.764 516.313 482.235 475.34 545.228 636.204C549.589 647.345 571.165 647.577 575.96 636.503C587.011 611.011 600.162 588.513 615.277 569.756C549.018 516.263 524.908 440.088 555.252 369.733Z" fill="#854FDC"/>
</g>
<path d="M842.09 617.015C868.141 624.813 897.96 615.734 908.645 596.761C919.354 577.771 906.91 556.071 880.836 548.273C854.785 540.49 824.966 549.553 814.258 568.526C810.468 575.294 809.646 582.377 811.244 589.079C786.608 565.051 748.935 546.41 690.075 534.903C690.075 534.903 744.301 556.736 703.226 617.547C723.729 630.384 744.734 636.686 766.722 640.045C791.631 643.836 812.523 642.672 843.049 637.534C839.464 628.571 835.218 619.958 829.943 611.826C833.574 613.905 837.615 615.684 842.09 617.015Z" fill="#FC516B" fill-opacity="0.8"/>
<mask id="mask2_9_166" style="mask-type:luminance" maskUnits="userSpaceOnUse" x="656" y="616" width="205" height="99">
<path d="M656.374 616.964H860.949V714.806H656.374V616.964Z" fill="white"/>
</mask>
<g mask="url(#mask2_9_166)">
<path d="M703.225 617.546C694.572 630.35 681.695 644.884 663.178 661.312C653.338 670.059 664.662 682.846 679.663 680.003C769.096 663.009 838.186 671.356 859.648 713.725C856.588 686.189 852.227 660.581 843.049 637.534C796.266 639.646 748.227 633.294 703.225 617.546Z" fill="#FC516B"/>
</g>
<mask id="mask3_9_166" style="mask-type:luminance" maskUnits="userSpaceOnUse" x="218" y="531" width="258" height="184">
<path d="M218 531.828H475.18V714.807H218V531.828Z" fill="white"/>
</mask>
<g mask="url(#mask3_9_166)">
<path d="M441.548 534.904C382.664 546.41 344.992 565.051 320.356 589.079C321.977 582.378 321.155 575.294 317.342 568.526C306.634 549.553 276.838 540.491 250.764 548.273C224.712 556.072 212.246 577.772 222.954 596.761C233.663 615.734 263.458 624.813 289.533 617.015C294.008 615.684 298.049 613.905 301.656 611.827C282.82 640.843 276.199 675.48 271.952 713.726C293.414 671.356 362.504 663.009 451.937 680.003C466.96 682.863 478.262 670.043 468.399 661.296C362.047 566.897 441.548 534.904 441.548 534.904Z" fill="#5E4DFF"/>
</g>
<defs>
<linearGradient id="paint0_linear_9_166" x1="1008.71" y1="586.873" x2="1942" y2="586.873" gradientUnits="userSpaceOnUse">
<stop stop-color="#5E4DFF"/>
<stop offset="0.5" stop-color="#854FDC"/>
<stop offset="1" stop-color="#FC516B"/>
</linearGradient>
<linearGradient id="paint1_linear_9_166" x1="1008.71" y1="476.17" x2="1942" y2="476.17" gradientUnits="userSpaceOnUse">
<stop stop-color="#5E4DFF"/>
<stop offset="0.5" stop-color="#854FDC"/>
<stop offset="1" stop-color="#FC516B"/>
</linearGradient>
</defs>
</svg>
