<svg width="2160" height="1080" viewBox="0 0 2160 1080" fill="none" xmlns="http://www.w3.org/2000/svg">
<rect width="2160" height="1080" fill="white"/>
<path d="M1119.83 645.369C1117.57 645.369 1114.76 645.324 1111.41 645.234C1108.15 645.234 1104.81 645.188 1101.37 645.098C1098.02 645.007 1095.08 644.917 1092.54 644.826C1092.54 640.754 1092.54 635.776 1092.54 629.894C1092.63 623.921 1092.68 617.541 1092.68 610.753C1092.77 603.875 1092.81 597.042 1092.81 590.255C1092.91 583.377 1093 576.951 1093.09 570.978C1093.18 564.915 1093.27 559.756 1093.36 555.503C1086.57 555.593 1079.96 555.684 1073.54 555.774C1067.11 555.774 1061.23 555.774 1055.89 555.774L1056.43 542.199C1062.23 542.199 1068.47 542.244 1075.17 542.335C1081.86 542.335 1088.7 542.38 1095.67 542.47C1102.63 542.47 1109.38 542.516 1115.89 542.606C1122.5 542.606 1128.56 542.651 1134.08 542.742C1139.6 542.742 1144.26 542.787 1148.07 542.878C1151.96 542.878 1154.58 542.923 1155.94 543.013L1156.35 554.417C1151.37 554.598 1145.67 554.779 1139.24 554.96C1132.82 555.05 1126.07 555.141 1119.01 555.231C1119.1 559.304 1119.2 564.191 1119.29 569.892C1119.38 575.594 1119.42 581.793 1119.42 588.49C1119.51 595.096 1119.56 601.793 1119.56 608.581C1119.65 615.369 1119.69 621.93 1119.69 628.265C1119.78 634.6 1119.83 640.301 1119.83 645.369ZM1177.13 623.921C1174.78 623.921 1172.34 623.921 1169.8 623.921C1167.36 623.83 1164.83 623.695 1162.2 623.514C1160.21 630.573 1158.22 637.948 1156.23 645.641L1139.94 644.555C1145.01 627.45 1150.66 610.21 1156.91 592.834C1163.15 575.367 1169.8 558.399 1176.86 541.927C1180.21 541.565 1183.92 541.249 1187.99 540.977C1192.16 540.706 1196.41 540.57 1200.76 540.57C1206.28 553.964 1212.16 569.44 1218.4 586.997C1224.65 604.554 1231.07 623.468 1237.68 643.74C1232.43 644.645 1227.45 645.324 1222.75 645.777C1218.13 646.229 1213.43 646.455 1208.63 646.455C1206.73 638.853 1204.6 630.844 1202.25 622.428C1194.19 623.423 1185.82 623.921 1177.13 623.921ZM1182.43 556.453C1180.53 561.611 1178.13 568.761 1175.23 577.901C1172.43 587.042 1169.31 597.766 1165.87 610.074C1169.49 610.527 1173.2 610.844 1177 611.025C1180.89 611.206 1185.05 611.296 1189.49 611.296C1191.12 611.296 1192.75 611.296 1194.38 611.296C1196.09 611.206 1197.68 611.16 1199.13 611.16C1197.14 603.92 1195.1 596.906 1193.02 590.119C1191.03 583.241 1189.13 576.951 1187.32 571.25C1185.51 565.458 1183.88 560.525 1182.43 556.453ZM1262.37 646.455C1256.67 632.428 1250.65 616.59 1244.32 598.943C1238.07 581.205 1231.78 562.652 1225.45 543.285C1230.97 542.289 1236.03 541.611 1240.65 541.249C1245.36 540.796 1249.97 540.57 1254.5 540.57C1256.58 548.715 1258.75 557.086 1261.01 565.684C1263.37 574.281 1265.72 582.653 1268.07 590.798C1270.52 598.943 1272.82 606.454 1275 613.332C1277.17 620.21 1279.07 625.957 1280.7 630.573C1282.69 625.143 1285.09 617.857 1287.89 608.717C1290.7 599.576 1293.73 589.214 1296.99 577.63C1300.24 566.046 1303.55 553.874 1306.9 541.113L1323.19 542.199C1318.21 559.485 1312.55 576.906 1306.22 594.463C1299.97 611.93 1293.32 628.808 1286.26 645.098L1262.37 646.455ZM1404.29 645.777C1401.13 645.505 1396.06 645.279 1389.09 645.098C1382.21 644.826 1373.93 644.645 1364.25 644.555C1354.65 644.464 1344.2 644.419 1332.89 644.419C1332.71 641.885 1332.48 638.039 1332.21 632.88C1332.03 627.631 1331.8 621.658 1331.53 614.961C1331.26 608.264 1330.99 601.296 1330.72 594.056C1330.44 586.816 1330.22 579.847 1330.04 573.15C1329.86 566.363 1329.68 560.344 1329.49 555.095C1329.4 549.846 1329.36 545.909 1329.36 543.285C1333.34 543.285 1337.91 543.285 1343.07 543.285C1348.32 543.194 1353.79 543.104 1359.5 543.013C1365.2 542.923 1370.85 542.832 1376.46 542.742C1382.08 542.561 1387.28 542.425 1392.08 542.335C1396.96 542.154 1401.08 542.018 1404.43 541.927L1404.97 556.453L1356.51 554.824C1356.51 560.163 1356.51 565.593 1356.51 571.114C1356.51 576.544 1356.55 581.883 1356.64 587.132L1402.26 585.639L1401.71 600.572L1356.78 598.671C1356.87 605.097 1356.96 611.206 1357.05 616.998C1357.14 622.79 1357.28 628.039 1357.46 632.745L1404.84 631.116L1404.29 645.777ZM1469.69 646.591C1464.8 634.283 1459.82 623.966 1454.75 615.64C1449.69 607.223 1444.89 601.25 1440.36 597.721C1440.55 605.323 1440.68 613.197 1440.77 621.342C1440.86 629.487 1440.91 637.496 1440.91 645.369C1436.84 645.369 1432.54 645.279 1428.01 645.098C1423.58 645.007 1419.73 644.917 1416.47 644.826C1416.47 637.134 1416.47 629.125 1416.47 620.799C1416.47 612.473 1416.43 604.282 1416.34 596.228C1416.34 588.083 1416.29 580.481 1416.2 573.422C1416.11 566.363 1416.02 560.209 1415.93 554.96C1415.93 549.71 1415.88 545.819 1415.79 543.285C1420.41 542.561 1424.98 542.063 1429.5 541.792C1434.12 541.43 1438.42 541.249 1442.4 541.249C1452.54 541.249 1461.41 542.335 1469.01 544.507C1476.61 546.588 1482.54 549.62 1486.79 553.602C1491.04 557.494 1493.17 562.245 1493.17 567.856C1493.17 571.928 1492.04 575.82 1489.78 579.53C1487.61 583.241 1484.62 586.454 1480.82 589.169C1477.02 591.884 1472.72 593.784 1467.92 594.87C1469.37 596.59 1471.18 599.033 1473.35 602.201C1475.52 605.278 1477.79 608.762 1480.14 612.654C1482.58 616.455 1484.94 620.301 1487.2 624.192C1489.46 628.084 1491.5 631.749 1493.31 635.188C1495.12 638.537 1496.43 641.252 1497.24 643.333C1495.8 643.605 1493.81 643.921 1491.27 644.283C1488.83 644.645 1486.2 644.962 1483.4 645.234C1480.68 645.596 1478.06 645.867 1475.52 646.048C1473.08 646.32 1471.13 646.501 1469.69 646.591ZM1438.74 551.837C1439.01 555.91 1439.28 561.476 1439.55 568.535C1439.82 575.594 1440.09 583.467 1440.36 592.155C1449.32 591.793 1456.38 589.938 1461.54 586.589C1466.79 583.15 1469.42 578.625 1469.42 573.014C1469.42 568.942 1468.06 565.322 1465.34 562.154C1462.72 558.896 1459.1 556.362 1454.48 554.552C1449.87 552.742 1444.62 551.837 1438.74 551.837ZM1506.07 644.691C1506.07 640.618 1506.12 635.686 1506.21 629.894C1506.3 624.011 1506.39 617.722 1506.48 611.025C1506.66 604.237 1506.84 597.404 1507.02 590.526C1507.2 583.558 1507.39 576.951 1507.57 570.707C1507.84 564.372 1508.06 558.806 1508.25 554.009C1508.43 549.122 1508.61 545.412 1508.79 542.878C1511.14 542.697 1514.44 542.561 1518.7 542.47C1523.04 542.38 1528.43 542.335 1534.85 542.335C1542.27 553.285 1550.01 564.96 1558.07 577.358C1566.21 589.666 1574.49 602.834 1582.91 616.862L1579.92 542.199C1582.27 542.199 1584.81 542.289 1587.52 542.47C1590.33 542.561 1593.04 542.697 1595.67 542.878C1595.67 550.48 1595.62 558.625 1595.53 567.313C1595.44 575.91 1595.35 584.463 1595.26 592.97C1595.17 601.477 1595.04 609.395 1594.85 616.726C1594.67 623.966 1594.49 630.075 1594.31 635.052C1594.22 640.03 1594.08 643.288 1593.9 644.826C1592 644.917 1589.42 645.007 1586.17 645.098C1583 645.188 1579.79 645.234 1576.53 645.234C1573.27 645.324 1570.6 645.369 1568.52 645.369C1561.37 633.695 1553.4 621.387 1544.63 608.445C1535.94 595.504 1527.16 582.653 1518.29 569.892L1521.82 645.505C1516.75 645.505 1511.5 645.234 1506.07 644.691ZM1654.01 645.777C1646.95 645.777 1640.43 644.51 1634.46 641.976C1628.58 639.351 1623.42 635.686 1618.99 630.98C1614.64 626.274 1611.25 620.753 1608.8 614.418C1606.36 607.993 1605.14 601.024 1605.14 593.513C1605.14 586.001 1606.36 579.078 1608.8 572.743C1611.25 566.317 1614.64 560.752 1618.99 556.046C1623.42 551.339 1628.58 547.719 1634.46 545.185C1640.43 542.561 1646.95 541.249 1654.01 541.249C1661.07 541.249 1667.58 542.561 1673.56 545.185C1679.53 547.719 1684.69 551.339 1689.03 556.046C1693.47 560.752 1696.86 566.317 1699.21 572.743C1701.66 579.078 1702.88 586.001 1702.88 593.513C1702.88 601.024 1701.66 607.993 1699.21 614.418C1696.86 620.753 1693.47 626.274 1689.03 630.98C1684.69 635.686 1679.53 639.351 1673.56 641.976C1667.58 644.51 1661.07 645.777 1654.01 645.777ZM1656.86 634.374C1661.29 634.374 1665.14 632.88 1668.4 629.894C1671.66 626.907 1674.19 622.699 1676 617.269C1677.81 611.839 1678.72 605.504 1678.72 598.264C1678.72 589.666 1677.49 581.929 1675.05 575.051C1672.61 568.173 1669.3 562.743 1665.14 558.761C1660.98 554.688 1656.32 552.652 1651.16 552.652C1646.81 552.652 1642.97 554.145 1639.62 557.132C1636.36 560.118 1633.83 564.326 1632.02 569.756C1630.21 575.186 1629.3 581.521 1629.3 588.761C1629.3 597.268 1630.52 605.006 1632.97 611.975C1635.41 618.853 1638.71 624.328 1642.88 628.401C1647.04 632.383 1651.7 634.374 1656.86 634.374ZM1790.41 645.777C1788.33 645.686 1784.89 645.596 1780.09 645.505C1775.29 645.415 1769.46 645.324 1762.58 645.234C1755.79 645.234 1748.28 645.188 1740.04 645.098C1731.9 645.098 1723.44 645.098 1714.66 645.098C1713.84 626.455 1713.26 608.717 1712.89 591.884C1712.53 575.051 1712.35 558.67 1712.35 542.742C1714.43 542.651 1718.05 542.606 1723.21 542.606C1728.37 542.516 1734.16 542.47 1740.59 542.47C1740.59 549.077 1740.54 556.362 1740.45 564.326C1740.45 572.29 1740.36 580.435 1740.18 588.761C1740.09 597.087 1739.95 605.232 1739.77 613.197C1739.68 621.07 1739.5 628.355 1739.23 635.052C1748.64 635.052 1757.78 634.962 1766.65 634.781C1775.52 634.509 1783.3 634.193 1790 633.831L1790.41 645.777ZM1834.28 623.921C1831.93 623.921 1829.48 623.921 1826.95 623.921C1824.5 623.83 1821.97 623.695 1819.35 623.514C1817.36 630.573 1815.36 637.948 1813.37 645.641L1797.08 644.555C1802.15 627.45 1807.81 610.21 1814.05 592.834C1820.3 575.367 1826.95 558.399 1834.01 541.927C1837.36 541.565 1841.07 541.249 1845.14 540.977C1849.3 540.706 1853.56 540.57 1857.9 540.57C1863.42 553.964 1869.3 569.44 1875.55 586.997C1881.79 604.554 1888.22 623.468 1894.82 643.74C1889.57 644.645 1884.6 645.324 1879.89 645.777C1875.28 646.229 1870.57 646.455 1865.77 646.455C1863.87 638.853 1861.75 630.844 1859.39 622.428C1851.34 623.423 1842.97 623.921 1834.28 623.921ZM1839.57 556.453C1837.67 561.611 1835.27 568.761 1832.38 577.901C1829.57 587.042 1826.45 597.766 1823.01 610.074C1826.63 610.527 1830.34 610.844 1834.14 611.025C1838.03 611.206 1842.2 611.296 1846.63 611.296C1848.26 611.296 1849.89 611.296 1851.52 611.296C1853.24 611.206 1854.82 611.16 1856.27 611.16C1854.28 603.92 1852.24 596.906 1850.16 590.119C1848.17 583.241 1846.27 576.951 1844.46 571.25C1842.65 565.458 1841.02 560.525 1839.57 556.453Z" fill="black"/>
<path d="M1273.4 505.734C1269.87 505.734 1266.61 505.1 1263.62 503.833C1260.68 502.521 1258.1 500.688 1255.88 498.335C1253.71 495.982 1252.02 493.222 1250.79 490.054C1249.57 486.842 1248.96 483.357 1248.96 479.602C1248.96 475.846 1249.57 472.384 1250.79 469.217C1252.02 466.004 1253.71 463.221 1255.88 460.868C1258.1 458.515 1260.68 456.705 1263.62 455.438C1266.61 454.126 1269.87 453.47 1273.4 453.47C1276.93 453.47 1280.18 454.126 1283.17 455.438C1286.16 456.705 1288.74 458.515 1290.91 460.868C1293.13 463.221 1294.82 466.004 1296 469.217C1297.22 472.384 1297.83 475.846 1297.83 479.602C1297.83 483.357 1297.22 486.842 1296 490.054C1294.82 493.222 1293.13 495.982 1290.91 498.335C1288.74 500.688 1286.16 502.521 1283.17 503.833C1280.18 505.1 1276.93 505.734 1273.4 505.734ZM1274.82 500.032C1277.04 500.032 1278.96 499.286 1280.59 497.792C1282.22 496.299 1283.49 494.195 1284.39 491.48C1285.3 488.765 1285.75 485.597 1285.75 481.977C1285.75 477.679 1285.14 473.81 1283.92 470.371C1282.7 466.932 1281.04 464.217 1278.96 462.226C1276.88 460.189 1274.55 459.171 1271.97 459.171C1269.8 459.171 1267.88 459.918 1266.2 461.411C1264.57 462.904 1263.31 465.008 1262.4 467.724C1261.5 470.439 1261.04 473.606 1261.04 477.226C1261.04 481.48 1261.65 485.348 1262.88 488.833C1264.1 492.272 1265.75 495.009 1267.83 497.046C1269.91 499.037 1272.24 500.032 1274.82 500.032ZM1329.51 506.141C1327.07 499.987 1324.58 494.828 1322.05 490.665C1319.51 486.457 1317.11 483.471 1314.85 481.706C1314.94 485.507 1315.01 489.444 1315.06 493.516C1315.1 497.589 1315.12 501.593 1315.12 505.53C1313.09 505.53 1310.94 505.485 1308.68 505.394C1306.46 505.349 1304.54 505.304 1302.91 505.259C1302.91 501.412 1302.91 497.408 1302.91 493.245C1302.91 489.082 1302.88 484.986 1302.84 480.959C1302.84 476.887 1302.82 473.086 1302.77 469.556C1302.73 466.027 1302.68 462.95 1302.63 460.325C1302.63 457.701 1302.61 455.755 1302.57 454.488C1304.87 454.126 1307.16 453.877 1309.42 453.741C1311.73 453.56 1313.88 453.47 1315.87 453.47C1320.94 453.47 1325.37 454.013 1329.17 455.099C1332.98 456.139 1335.94 457.655 1338.07 459.646C1340.19 461.592 1341.26 463.968 1341.26 466.773C1341.26 468.81 1340.69 470.755 1339.56 472.611C1338.47 474.466 1336.98 476.072 1335.08 477.43C1333.18 478.787 1331.03 479.737 1328.63 480.28C1329.36 481.14 1330.26 482.362 1331.35 483.946C1332.43 485.484 1333.56 487.226 1334.74 489.172C1335.96 491.073 1337.14 492.996 1338.27 494.941C1339.4 496.887 1340.42 498.72 1341.32 500.439C1342.23 502.114 1342.88 503.471 1343.29 504.512C1342.57 504.648 1341.57 504.806 1340.31 504.987C1339.08 505.168 1337.77 505.326 1336.37 505.462C1335.01 505.643 1333.7 505.779 1332.43 505.869C1331.21 506.005 1330.24 506.096 1329.51 506.141ZM1314.04 458.764C1314.17 460.8 1314.31 463.583 1314.45 467.113C1314.58 470.642 1314.72 474.579 1314.85 478.923C1319.33 478.742 1322.86 477.814 1325.44 476.14C1328.07 474.421 1329.38 472.158 1329.38 469.353C1329.38 467.316 1328.7 465.506 1327.34 463.922C1326.03 462.293 1324.22 461.026 1321.91 460.121C1319.6 459.216 1316.98 458.764 1314.04 458.764ZM1363.93 494.806C1362.75 494.806 1361.53 494.806 1360.26 494.806C1359.04 494.76 1357.77 494.693 1356.46 494.602C1355.47 498.132 1354.47 501.82 1353.48 505.666L1345.33 505.123C1347.87 496.57 1350.69 487.95 1353.82 479.262C1356.94 470.529 1360.26 462.045 1363.79 453.809C1365.47 453.628 1367.32 453.47 1369.36 453.334C1371.44 453.198 1373.57 453.13 1375.74 453.13C1378.5 459.827 1381.44 467.565 1384.56 476.344C1387.69 485.122 1390.9 494.579 1394.2 504.716C1391.58 505.168 1389.09 505.507 1386.73 505.734C1384.43 505.96 1382.07 506.073 1379.68 506.073C1378.73 502.272 1377.66 498.267 1376.49 494.059C1372.46 494.557 1368.27 494.806 1363.93 494.806ZM1366.58 461.072C1365.63 463.651 1364.43 467.226 1362.98 471.796C1361.58 476.366 1360.01 481.728 1358.3 487.882C1360.11 488.109 1361.96 488.267 1363.86 488.358C1365.81 488.448 1367.89 488.493 1370.11 488.493C1370.92 488.493 1371.73 488.493 1372.55 488.493C1373.41 488.448 1374.2 488.425 1374.92 488.425C1373.93 484.805 1372.91 481.299 1371.87 477.905C1370.87 474.466 1369.92 471.321 1369.02 468.47C1368.11 465.574 1367.3 463.108 1366.58 461.072ZM1418 505.53C1416.87 505.53 1415.46 505.507 1413.79 505.462C1412.16 505.462 1410.49 505.44 1408.77 505.394C1407.09 505.349 1405.62 505.304 1404.36 505.259C1404.36 503.222 1404.36 500.734 1404.36 497.792C1404.4 494.806 1404.42 491.616 1404.42 488.222C1404.47 484.783 1404.49 481.366 1404.49 477.973C1404.54 474.534 1404.58 471.321 1404.63 468.334C1404.67 465.303 1404.72 462.723 1404.76 460.597C1401.37 460.642 1398.07 460.687 1394.85 460.732C1391.64 460.732 1388.7 460.732 1386.03 460.732L1386.3 453.945C1389.2 453.945 1392.32 453.967 1395.67 454.013C1399.02 454.013 1402.43 454.035 1405.92 454.081C1409.4 454.081 1412.77 454.103 1416.03 454.148C1419.33 454.148 1422.37 454.171 1425.13 454.216C1427.89 454.216 1430.22 454.239 1432.12 454.284C1434.06 454.284 1435.38 454.307 1436.05 454.352L1436.26 460.054C1433.77 460.144 1430.92 460.235 1427.71 460.325C1424.49 460.37 1421.12 460.416 1417.59 460.461C1417.64 462.497 1417.68 464.941 1417.73 467.791C1417.77 470.642 1417.8 473.742 1417.8 477.09C1417.84 480.394 1417.86 483.742 1417.86 487.136C1417.91 490.53 1417.93 493.81 1417.93 496.978C1417.98 500.145 1418 502.996 1418 505.53ZM1458.99 505.734C1455.46 505.734 1452.21 505.1 1449.22 503.833C1446.28 502.521 1443.7 500.688 1441.48 498.335C1439.31 495.982 1437.61 493.222 1436.39 490.054C1435.17 486.842 1434.56 483.357 1434.56 479.602C1434.56 475.846 1435.17 472.384 1436.39 469.217C1437.61 466.004 1439.31 463.221 1441.48 460.868C1443.7 458.515 1446.28 456.705 1449.22 455.438C1452.21 454.126 1455.46 453.47 1458.99 453.47C1462.52 453.47 1465.78 454.126 1468.77 455.438C1471.75 456.705 1474.33 458.515 1476.5 460.868C1478.72 463.221 1480.42 466.004 1481.6 469.217C1482.82 472.384 1483.43 475.846 1483.43 479.602C1483.43 483.357 1482.82 486.842 1481.6 490.054C1480.42 493.222 1478.72 495.982 1476.5 498.335C1474.33 500.688 1471.75 502.521 1468.77 503.833C1465.78 505.1 1462.52 505.734 1458.99 505.734ZM1460.42 500.032C1462.64 500.032 1464.56 499.286 1466.19 497.792C1467.82 496.299 1469.08 494.195 1469.99 491.48C1470.89 488.765 1471.35 485.597 1471.35 481.977C1471.35 477.679 1470.74 473.81 1469.51 470.371C1468.29 466.932 1466.64 464.217 1464.56 462.226C1462.48 460.189 1460.15 459.171 1457.57 459.171C1455.4 459.171 1453.47 459.918 1451.8 461.411C1450.17 462.904 1448.9 465.008 1448 467.724C1447.09 470.439 1446.64 473.606 1446.64 477.226C1446.64 481.48 1447.25 485.348 1448.47 488.833C1449.69 492.272 1451.35 495.009 1453.43 497.046C1455.51 499.037 1457.84 500.032 1460.42 500.032ZM1515.11 506.141C1512.67 499.987 1510.18 494.828 1507.64 490.665C1505.11 486.457 1502.71 483.471 1500.45 481.706C1500.54 485.507 1500.61 489.444 1500.65 493.516C1500.7 497.589 1500.72 501.593 1500.72 505.53C1498.68 505.53 1496.53 505.485 1494.27 505.394C1492.05 505.349 1490.13 505.304 1488.5 505.259C1488.5 501.412 1488.5 497.408 1488.5 493.245C1488.5 489.082 1488.48 484.986 1488.43 480.959C1488.43 476.887 1488.41 473.086 1488.37 469.556C1488.32 466.027 1488.28 462.95 1488.23 460.325C1488.23 457.701 1488.21 455.755 1488.16 454.488C1490.47 454.126 1492.76 453.877 1495.02 453.741C1497.33 453.56 1499.48 453.47 1501.47 453.47C1506.54 453.47 1510.97 454.013 1514.77 455.099C1518.57 456.139 1521.54 457.655 1523.66 459.646C1525.79 461.592 1526.85 463.968 1526.85 466.773C1526.85 468.81 1526.29 470.755 1525.16 472.611C1524.07 474.466 1522.58 476.072 1520.68 477.43C1518.78 478.787 1516.63 479.737 1514.23 480.28C1514.95 481.14 1515.86 482.362 1516.94 483.946C1518.03 485.484 1519.16 487.226 1520.34 489.172C1521.56 491.073 1522.73 492.996 1523.87 494.941C1525 496.887 1526.02 498.72 1526.92 500.439C1527.83 502.114 1528.48 503.471 1528.89 504.512C1528.16 504.648 1527.17 504.806 1525.9 504.987C1524.68 505.168 1523.37 505.326 1521.97 505.462C1520.61 505.643 1519.3 505.779 1518.03 505.869C1516.81 506.005 1515.83 506.096 1515.11 506.141ZM1499.63 458.764C1499.77 460.8 1499.91 463.583 1500.04 467.113C1500.18 470.642 1500.31 474.579 1500.45 478.923C1504.93 478.742 1508.46 477.814 1511.04 476.14C1513.66 474.421 1514.97 472.158 1514.97 469.353C1514.97 467.316 1514.3 465.506 1512.94 463.922C1511.63 462.293 1509.82 461.026 1507.51 460.121C1505.2 459.216 1502.58 458.764 1499.63 458.764ZM1533.34 505.462C1533.88 494.466 1534.15 483.29 1534.15 471.932C1534.15 470.031 1534.13 467.95 1534.08 465.687C1534.08 463.379 1534.06 461.207 1534.01 459.171C1534.01 457.135 1533.99 455.506 1533.95 454.284C1534.49 454.194 1535.39 454.126 1536.66 454.081C1537.97 454.035 1539.4 454.013 1540.94 454.013C1542.16 454.013 1543.36 454.035 1544.53 454.081C1545.76 454.126 1546.8 454.194 1547.66 454.284C1547.57 457.09 1547.5 459.895 1547.45 462.701C1547.41 465.506 1547.36 468.176 1547.32 470.71C1547.32 473.199 1547.32 475.371 1547.32 477.226C1547.32 483.38 1547.39 488.72 1547.52 493.245C1547.7 497.77 1547.95 501.774 1548.27 505.259C1545.82 505.349 1543.34 505.394 1540.8 505.394C1538.31 505.44 1535.82 505.462 1533.34 505.462ZM1578.84 505.734C1575.31 505.734 1572.05 505.1 1569.06 503.833C1566.12 502.521 1563.54 500.688 1561.32 498.335C1559.15 495.982 1557.45 493.222 1556.23 490.054C1555.01 486.842 1554.4 483.357 1554.4 479.602C1554.4 475.846 1555.01 472.384 1556.23 469.217C1557.45 466.004 1559.15 463.221 1561.32 460.868C1563.54 458.515 1566.12 456.705 1569.06 455.438C1572.05 454.126 1575.31 453.47 1578.84 453.47C1582.36 453.47 1585.62 454.126 1588.61 455.438C1591.6 456.705 1594.18 458.515 1596.35 460.868C1598.56 463.221 1600.26 466.004 1601.44 469.217C1602.66 472.384 1603.27 475.846 1603.27 479.602C1603.27 483.357 1602.66 486.842 1601.44 490.054C1600.26 493.222 1598.56 495.982 1596.35 498.335C1594.18 500.688 1591.6 502.521 1588.61 503.833C1585.62 505.1 1582.36 505.734 1578.84 505.734ZM1580.26 500.032C1582.48 500.032 1584.4 499.286 1586.03 497.792C1587.66 496.299 1588.93 494.195 1589.83 491.48C1590.74 488.765 1591.19 485.597 1591.19 481.977C1591.19 477.679 1590.58 473.81 1589.36 470.371C1588.13 466.932 1586.48 464.217 1584.4 462.226C1582.32 460.189 1579.99 459.171 1577.41 459.171C1575.24 459.171 1573.31 459.918 1571.64 461.411C1570.01 462.904 1568.74 465.008 1567.84 467.724C1566.93 470.439 1566.48 473.606 1566.48 477.226C1566.48 481.48 1567.09 485.348 1568.31 488.833C1569.54 492.272 1571.19 495.009 1573.27 497.046C1575.35 499.037 1577.68 500.032 1580.26 500.032ZM1643.46 505.734C1642.15 505.734 1640.77 505.688 1639.32 505.598C1637.92 505.553 1636.54 505.485 1635.18 505.394C1635.18 500.462 1635.18 495.507 1635.18 490.53C1635.23 485.552 1635.25 480.778 1635.25 476.208C1635.3 471.638 1635.34 467.475 1635.39 463.719C1635.48 459.918 1635.57 456.728 1635.66 454.148C1637.42 453.922 1639.14 453.764 1640.82 453.673C1642.49 453.538 1644.12 453.47 1645.7 453.47C1656.11 453.47 1663.96 455.619 1669.26 459.918C1674.6 464.171 1677.27 470.461 1677.27 478.787C1677.27 487.566 1674.35 494.263 1668.51 498.878C1662.72 503.449 1654.37 505.734 1643.46 505.734ZM1647.2 500.1C1651.5 500.1 1654.96 499.489 1657.58 498.267C1660.25 497 1662.2 495.009 1663.42 492.294C1664.64 489.579 1665.25 485.982 1665.25 481.502C1665.25 474.398 1663.8 469.013 1660.91 465.348C1658.06 461.683 1653.62 459.556 1647.6 458.968C1647.56 460.189 1647.51 462.045 1647.47 464.533C1647.42 466.977 1647.38 469.782 1647.33 472.95C1647.33 476.072 1647.31 479.308 1647.26 482.656C1647.26 486.005 1647.24 489.217 1647.2 492.294C1647.2 495.326 1647.2 497.928 1647.2 500.1ZM1683.4 505.462C1683.95 494.466 1684.22 483.29 1684.22 471.932C1684.22 470.031 1684.19 467.95 1684.15 465.687C1684.15 463.379 1684.13 461.207 1684.08 459.171C1684.08 457.135 1684.06 455.506 1684.01 454.284C1684.56 454.194 1685.46 454.126 1686.73 454.081C1688.04 454.035 1689.47 454.013 1691.01 454.013C1692.23 454.013 1693.43 454.035 1694.6 454.081C1695.82 454.126 1696.86 454.194 1697.72 454.284C1697.63 457.09 1697.57 459.895 1697.52 462.701C1697.48 465.506 1697.43 468.176 1697.39 470.71C1697.39 473.199 1697.39 475.371 1697.39 477.226C1697.39 483.38 1697.45 488.72 1697.59 493.245C1697.77 497.77 1698.02 501.774 1698.34 505.259C1695.89 505.349 1693.4 505.394 1690.87 505.394C1688.38 505.44 1685.89 505.462 1683.4 505.462Z" fill="black"/>
<mask id="mask0_9_344" style="mask-type:luminance" maskUnits="userSpaceOnUse" x="533" y="366" width="229" height="204">
<path d="M533.63 366H761.585V569.332H533.63V366Z" fill="white"/>
</mask>
<g mask="url(#mask0_9_344)">
<path d="M756.835 509.769C697.746 486.074 642.242 466.785 586.372 460.965C591.965 459.601 597.422 457.722 602.559 455.178C632.378 440.395 640.118 410.813 619.82 389.08C605.071 373.283 579.545 366.033 555.252 368.926C531.438 407.388 533.698 443.256 545.32 478.707C556.233 512.031 576.965 543.242 615.277 568.95C651.922 523.438 699.961 500.058 756.835 509.769Z" fill="black"/>
</g>
<mask id="mask1_9_344" style="mask-type:luminance" maskUnits="userSpaceOnUse" x="369" y="366" width="247" height="280">
<path d="M369.97 366H615.46V645.956H369.97V366Z" fill="white"/>
</mask>
<g mask="url(#mask1_9_344)">
<path d="M555.252 368.926C546.142 370.007 537.191 372.468 529.063 376.492C499.222 391.275 491.505 420.874 511.779 442.59C519.017 450.322 528.835 455.976 539.794 459.451C487.144 461.646 433.214 477.826 374.764 515.506C374.764 515.506 482.235 474.533 545.228 635.397C549.589 646.538 571.165 646.771 575.96 635.696C587.011 610.205 600.162 587.707 615.277 568.95C549.018 515.456 524.908 439.281 555.252 368.926Z" fill="black"/>
</g>
<path d="M842.09 616.208C868.141 624.007 897.96 614.927 908.645 595.954C919.354 576.965 906.91 555.265 880.836 547.466C854.785 539.684 824.966 548.746 814.258 567.719C810.468 574.487 809.646 581.571 811.244 588.272C786.608 564.244 748.935 545.604 690.074 534.097C690.074 534.097 744.301 555.93 703.226 616.74C723.729 629.577 744.734 635.879 766.722 639.238C791.631 643.03 812.523 641.866 843.049 636.727C839.464 627.765 835.218 619.151 829.943 611.02C833.574 613.098 837.615 614.878 842.09 616.208Z" fill="black"/>
<mask id="mask2_9_344" style="mask-type:luminance" maskUnits="userSpaceOnUse" x="656" y="616" width="205" height="98">
<path d="M656.374 616.158H860.949V713.999H656.374V616.158Z" fill="white"/>
</mask>
<g mask="url(#mask2_9_344)">
<path d="M703.226 616.74C694.572 629.544 681.695 644.077 663.178 660.506C653.338 669.252 664.662 682.04 679.663 679.196C769.096 662.202 838.186 670.549 859.648 712.919C856.588 685.382 852.227 659.774 843.049 636.727C796.266 638.839 748.228 632.487 703.226 616.74Z" fill="black"/>
</g>
<mask id="mask3_9_344" style="mask-type:luminance" maskUnits="userSpaceOnUse" x="218" y="531" width="258" height="184">
<path d="M218 531.021H475.18V714H218V531.021Z" fill="white"/>
</mask>
<g mask="url(#mask3_9_344)">
<path d="M441.548 534.097C382.665 545.604 344.992 564.244 320.356 588.272C321.977 581.571 321.155 574.487 317.342 567.72C306.634 548.747 276.838 539.684 250.764 547.466C224.713 555.265 212.246 576.965 222.955 595.955C233.663 614.928 263.459 624.007 289.533 616.208C294.008 614.878 298.049 613.099 301.657 611.02C282.82 640.037 276.199 674.674 271.952 712.919C293.414 670.55 362.504 662.202 451.937 679.197C466.96 682.057 478.262 669.236 468.399 660.49C362.047 566.09 441.548 534.097 441.548 534.097Z" fill="black"/>
</g>
</svg>
